<svg xmlns="http://www.w3.org/2000/svg" xmlns:xlink="http://www.w3.org/1999/xlink" viewBox="0 0 467.11 240.34"><defs><style>.cls-1{fill:none;}.cls-2,.cls-3{fill:#c1ce00;}.cls-3{stroke:#c1ce00;stroke-miterlimit:10;stroke-width:0.15px;}.cls-4{clip-path:url(#clip-path);}.cls-5{fill:#fff;}</style><clipPath id="clip-path"><polygon class="cls-1" points="335.11 40.1 299.1 4.09 263.1 40.1 299.1 76.11 263.1 112.11 299.1 148.12 335.11 112.11 371.11 76.11 335.11 40.1"/></clipPath></defs><title>inicioicoRecurso 14</title><g id="Capa_2" data-name="Capa 2"><g id="Capa_1-2" data-name="Capa 1"><rect class="cls-2" x="218.13" y="58.82" width="40.24" height="40.24" transform="translate(125.6 -145.34) rotate(45)"/><rect class="cls-2" x="181.68" y="33.13" width="32.19" height="32.19" transform="translate(92.74 -125.43) rotate(45)"/><rect class="cls-3" x="169.02" y="85.54" width="24.75" height="24.75" transform="translate(122.37 -99.58) rotate(45)"/><rect class="cls-2" x="143.93" y="55.22" width="20.14" height="20.14" transform="translate(309.06 2.56) rotate(135)"/><g class="cls-4"><rect class="cls-2" x="273.64" y="14.64" width="50.92" height="50.92" transform="translate(59.25 223.24) rotate(-45)"/><rect class="cls-2" x="309.65" y="50.65" width="50.92" height="50.92" transform="translate(44.34 259.25) rotate(-45)"/><rect class="cls-2" x="273.64" y="86.65" width="50.92" height="50.92" transform="translate(8.33 244.33) rotate(-45)"/><circle class="cls-5" cx="301.79" cy="36.03" r="2.25"/><circle class="cls-5" cx="345.67" cy="73.16" r="5.63"/><circle class="cls-5" cx="323.16" cy="82.16" r="3.38"/><circle class="cls-5" cx="302.91" cy="57.41" r="3.38"/><circle class="cls-5" cx="316.41" cy="109.17" r="3.38"/><circle class="cls-5" cx="284.91" cy="113.67" r="3.38"/><circle class="cls-5" cx="320.84" cy="42.15" r="2.25"/><circle class="cls-5" cx="299.54" cy="130.55" r="2.25"/><circle class="cls-5" cx="299.54" cy="90.04" r="2.25"/><circle class="cls-5" cx="279.28" cy="40.53" r="2.25"/><path class="cls-5" d="M302.94,58.1,280.46,41.74l-2.2.44-.21-1,1.23-.24-1.71-1.25,3.27-18-3.51-2.45L296.56,0l4.34,34.42,21.07,7ZM281.89,41.46l21,15.27,17-14.86L301,35.59l.25,2Zm-3.14-2.29,2,1.43,19.36-3.87L299.85,35,281.8,22.36Zm3.26-18,17.66,12.36L295.77,2.3,283.16,14.91Zm-3-2.12,2.06,1.44.78-4.28Z"/><path class="cls-5" d="M316.69,110.28,297.44,88.63l24.79-6.76L302.78,58.1,282.22,69.52l-3.4-28.36-18.57,3.28-.19-1.06,19.69-3.47,3.35,27.9L303,56.73l19.5,23.83-2.16-38.87V22.49l-18,13.79,1.11,18.85-1.07.06-1.14-19.41,20.21-15.46V41.66L323.75,82l-.05.19,0,.35-.11,0Zm-17.3-21.07,16.75,18.85,6.29-25.14Z"/><path class="cls-5" d="M285.1,114.44,263.45,100l36.08-12Zm-19.24-14.11,18.86,12.57,12.57-23.05Z"/><path class="cls-5" d="M314.62,141.75l-13.88-11.56-.31.4.63.73-.8.7-1.68-1.91L267.9,132.3l16.3-18.63-.34-.39L299.6,111,299,90.18l-8.36-15.53,32.48,7,23-9.22L348.49,112l-31.58-2.26ZM301.4,129.34l12.3,10.25,2.06-28.7Zm-16.49-14.86-14.5,16.57,27.29-2Zm15,15.53.23.27V130Zm-14-15.95L299,129l1.08-.08-.48-16.81ZM300.7,112l.45,16,14-18Zm-8-35.77L300.07,90l.6,20.85,15.24-2.18v-.1l.48,0,1.25-.18-.2.26,29.9,2.13-2.17-36.9-22,8.78-.16,0Z"/><polygon class="cls-5" points="349.75 116.25 321.95 81.51 365.85 85.9 344.88 73.31 360.51 53.21 322.44 42.64 346.08 70.57 345.26 71.26 319.38 40.68 362.33 52.61 346.46 73.02 370.5 87.44 324.38 82.83 350.59 115.59 349.75 116.25"/><circle class="cls-5" cx="299.54" cy="112.54" r="2.25"/><circle class="cls-5" cx="346.79" cy="85.54" r="2.25"/></g><path class="cls-5" d="M56.36,150.14,54.07,161.6H33.64l-12,59.8H8.47l12-59.8H0l2.29-11.46Z"/><path class="cls-5" d="M92.35,184.72q-3.15,15.66-24.22,15.65H55q-2.1,10.57,11.66,10.57a33.58,33.58,0,0,0,19.64-6.48l-2.1,10.47Q76,221.4,63.59,221.4q-26,0-20.63-26.76,5.13-25.56,30.2-25.56Q95.48,169.08,92.35,184.72Zm-35.39,6H70.17q8.22,0,9.37-5.64t-8.47-5.63Q60.11,179.44,57,190.71Z"/><path class="cls-5" d="M133.66,214.93a26.32,26.32,0,0,1-17.24,6.47q-24.93,0-19.59-26.66,5.13-25.67,32-25.66a57.93,57.93,0,0,1,13.66,1.49L140.44,181a53.48,53.48,0,0,0-12.66-1.5q-14.7,0-17.74,15.2-3.24,16.2,9.47,16.2,8.46,0,16.24-6.48Z"/><path class="cls-5" d="M144.32,195.24q5.34-26.66,30.75-26.66t20.09,26.66q-5.34,26.61-30.75,26.61T144.32,195.24Zm22.18,16.2q12.21,0,15.5-16.4,3.19-16-9-16t-15.4,16Q154.29,211.44,166.5,211.44Z"/><path class="cls-5" d="M210.36,169.08h11.71l-1,12.46q8.43-12.47,20.68-12.46,17.34,0,12.51,24.12-5.62,28.2-31.2,28.2-4.83,0-9.86-.44l-3.89,19.38H196.1Zm5.18,40.21a31.6,31.6,0,0,0,10.21,1.45q12,0,15.45-17.39Q243.84,180,235,180q-8.16,0-16.19,12.66Z"/><path class="cls-5" d="M310.08,184.72q-3.15,15.66-24.22,15.65H272.75q-2.1,10.57,11.66,10.57a33.55,33.55,0,0,0,19.64-6.48L302,214.93q-8.22,6.47-20.63,6.47-26,0-20.63-26.76,5.13-25.56,30.2-25.56Q313.21,169.08,310.08,184.72Zm-35.39,6H287.9q8.22,0,9.37-5.64t-8.47-5.63Q277.84,179.44,274.69,190.71Z"/><path class="cls-5" d="M313,218.91l2.19-11q8,3.48,19.44,3.49,8.52,0,9.61-5.49,1-5-4.73-5H330q-15.94,0-12.76-15.95,3.3-16.44,26.57-16.44a51.64,51.64,0,0,1,18,3l-2.2,11A45.44,45.44,0,0,0,341.37,179q-10.71,0-11.81,5.49-1,5,5.23,5h8.48q17.44,0,14.25,16Q354.24,221.9,332,221.9A54.86,54.86,0,0,1,313,218.91Z"/><path class="cls-5" d="M402.47,214.93a26.32,26.32,0,0,1-17.24,6.47q-24.92,0-19.59-26.66,5.14-25.67,32.05-25.66a57.9,57.9,0,0,1,13.65,1.49L409.25,181a53.48,53.48,0,0,0-12.66-1.5q-14.7,0-17.74,15.2-3.24,16.2,9.47,16.2,8.48,0,16.24-6.48Z"/><path class="cls-5" d="M457.09,221.4H445.38l1.2-13.45Q438,221.4,426.24,221.4q-18.33,0-13.25-25.46,5.38-26.87,32.54-26.86a129.67,129.67,0,0,1,21.58,2.14ZM452,180.94q-3-1.2-10-1.2-12.71,0-15.9,16.1-2.94,14.6,4.89,14.6,9.66,0,17.84-13.66Z"/></g></g></svg>