<svg xmlns="http://www.w3.org/2000/svg" xmlns:xlink="http://www.w3.org/1999/xlink" viewBox="0 0 1366 768"><defs><style>.cls-1{fill:none;}.cls-2{fill:url(#linear-gradient);}.cls-3{isolation:isolate;}.cls-4{clip-path:url(#clip-path);}.cls-5{clip-path:url(#clip-path-2);}.cls-6{mix-blend-mode:multiply;}.cls-7{clip-path:url(#clip-path-3);}.cls-10,.cls-11,.cls-12,.cls-13,.cls-14,.cls-15,.cls-16,.cls-17,.cls-18,.cls-19,.cls-20,.cls-21,.cls-22,.cls-23,.cls-24,.cls-25,.cls-26,.cls-27,.cls-28,.cls-29,.cls-30,.cls-31,.cls-32,.cls-33,.cls-34,.cls-35,.cls-36,.cls-37,.cls-38,.cls-39,.cls-40,.cls-41,.cls-42,.cls-43,.cls-44,.cls-45,.cls-46,.cls-47,.cls-48,.cls-49,.cls-50,.cls-51,.cls-52,.cls-53,.cls-54,.cls-55,.cls-8,.cls-9{mix-blend-mode:color-burn;}.cls-8{fill:url(#linear-gradient-3);}.cls-9{fill:url(#linear-gradient-4);}.cls-10{fill:url(#linear-gradient-5);}.cls-11{fill:url(#linear-gradient-6);}.cls-12{fill:url(#linear-gradient-7);}.cls-13{fill:url(#linear-gradient-8);}.cls-14{fill:url(#linear-gradient-9);}.cls-15{fill:url(#linear-gradient-10);}.cls-16{fill:url(#linear-gradient-11);}.cls-17{fill:url(#linear-gradient-12);}.cls-18{fill:url(#linear-gradient-13);}.cls-19{fill:url(#linear-gradient-14);}.cls-20{fill:url(#linear-gradient-15);}.cls-21{fill:url(#linear-gradient-16);}.cls-22{fill:url(#linear-gradient-17);}.cls-23{fill:url(#linear-gradient-18);}.cls-24{fill:url(#linear-gradient-19);}.cls-25{fill:url(#linear-gradient-20);}.cls-26{fill:url(#linear-gradient-21);}.cls-27{fill:url(#linear-gradient-22);}.cls-28{fill:url(#linear-gradient-23);}.cls-29{fill:url(#linear-gradient-24);}.cls-30{fill:url(#linear-gradient-25);}.cls-31{fill:url(#linear-gradient-26);}.cls-32{fill:url(#linear-gradient-27);}.cls-33{fill:url(#linear-gradient-28);}.cls-34{fill:url(#linear-gradient-29);}.cls-35{fill:url(#linear-gradient-30);}.cls-36{fill:url(#linear-gradient-31);}.cls-37{fill:url(#linear-gradient-32);}.cls-38{fill:url(#linear-gradient-33);}.cls-39{fill:url(#linear-gradient-34);}.cls-40{fill:url(#linear-gradient-35);}.cls-41{fill:url(#linear-gradient-36);}.cls-42{fill:url(#linear-gradient-37);}.cls-43{fill:url(#linear-gradient-38);}.cls-44{fill:url(#linear-gradient-39);}.cls-45{fill:url(#linear-gradient-40);}.cls-46{fill:url(#linear-gradient-41);}.cls-47{fill:url(#linear-gradient-42);}.cls-48{fill:url(#linear-gradient-43);}.cls-49{fill:url(#linear-gradient-44);}.cls-50{fill:url(#linear-gradient-45);}.cls-51{fill:url(#linear-gradient-46);}.cls-52{fill:url(#linear-gradient-47);}.cls-53{fill:url(#linear-gradient-48);}.cls-54{fill:url(#linear-gradient-49);}.cls-55{fill:url(#linear-gradient-50);}</style><linearGradient id="linear-gradient" x1="-474.4" y1="405.1" x2="1894.75" y2="384.95" gradientUnits="userSpaceOnUse"><stop offset="0.07" stop-color="#6bb4c3"/><stop offset="0.19" stop-color="#72b8c6"/><stop offset="0.37" stop-color="#87c2ce"/><stop offset="0.58" stop-color="#a9d3dc"/><stop offset="0.82" stop-color="#d7ebef"/><stop offset="1" stop-color="#fff"/></linearGradient><clipPath id="clip-path"><rect class="cls-1" y="-2.93" width="1380" height="774.86"/></clipPath><clipPath id="clip-path-2"/><clipPath id="clip-path-3"><rect class="cls-2" x="-420.5" y="-0.54" width="1801" height="795.04"/></clipPath><linearGradient id="linear-gradient-3" x1="1643.6" y1="212" x2="1727.76" y2="212" gradientTransform="matrix(0.71, 0.71, 0.71, -0.71, -1375.95, -830.05)" gradientUnits="userSpaceOnUse"><stop offset="0" stop-color="#d8d8d7"/><stop offset="1" stop-color="#e2e2e2"/></linearGradient><linearGradient id="linear-gradient-4" x1="1592.17" y1="168.05" x2="1659.5" y2="168.05" gradientTransform="matrix(0.71, 0.71, 0.71, -0.71, -1242.7, -862.76)" xlink:href="#linear-gradient-3"/><linearGradient id="linear-gradient-5" x1="1575.71" y1="240.06" x2="1627.49" y2="240.06" gradientTransform="matrix(0.71, 0.71, 0.71, -0.71, -1252.25, -722.69)" xlink:href="#linear-gradient-3"/><linearGradient id="linear-gradient-6" x1="1540.02" y1="191.8" x2="1582.15" y2="191.8" gradientTransform="matrix(-0.71, 0.71, 0.71, 0.71, 1058.74, -1047.68)" xlink:href="#linear-gradient-3"/><linearGradient id="linear-gradient-7" x1="1617.18" y1="287" x2="1684.51" y2="287" gradientTransform="matrix(0.71, 0.71, 0.71, -0.71, -1369.51, -677.38)" xlink:href="#linear-gradient-3"/><linearGradient id="linear-gradient-8" x1="1600.72" y1="359.02" x2="1652.5" y2="359.02" gradientTransform="matrix(0.71, 0.71, 0.71, -0.71, -1379.06, -537.31)" xlink:href="#linear-gradient-3"/><linearGradient id="linear-gradient-9" x1="1565.03" y1="310.76" x2="1607.16" y2="310.76" gradientTransform="matrix(-0.71, 0.71, 0.71, 0.71, 967.3, -1030.52)" xlink:href="#linear-gradient-3"/><linearGradient id="linear-gradient-10" x1="1613.68" y1="336.18" x2="1697.84" y2="336.18" gradientTransform="matrix(0.71, 0.71, 0.71, -0.71, -1412.68, -596.9)" xlink:href="#linear-gradient-3"/><linearGradient id="linear-gradient-11" x1="1562.25" y1="292.23" x2="1629.58" y2="292.23" gradientTransform="matrix(0.71, 0.71, 0.71, -0.71, -1279.44, -629.61)" xlink:href="#linear-gradient-3"/><linearGradient id="linear-gradient-12" x1="1545.79" y1="364.25" x2="1597.57" y2="364.25" gradientTransform="matrix(0.71, 0.71, 0.71, -0.71, -1288.99, -489.53)" xlink:href="#linear-gradient-3"/><linearGradient id="linear-gradient-13" x1="1510.1" y1="315.99" x2="1552.23" y2="315.99" gradientTransform="matrix(-0.71, 0.71, 0.71, 0.71, 979.69, -990.15)" xlink:href="#linear-gradient-3"/><linearGradient id="linear-gradient-14" x1="1638.69" y1="455.14" x2="1722.85" y2="455.14" gradientTransform="matrix(0.71, 0.71, 0.71, -0.71, -1539.49, -411.52)" xlink:href="#linear-gradient-3"/><linearGradient id="linear-gradient-15" x1="1587.26" y1="411.19" x2="1654.59" y2="411.19" gradientTransform="matrix(0.71, 0.71, 0.71, -0.71, -1406.25, -444.23)" xlink:href="#linear-gradient-3"/><linearGradient id="linear-gradient-16" x1="1570.8" y1="483.2" x2="1622.58" y2="483.2" gradientTransform="matrix(0.71, 0.71, 0.71, -0.71, -1415.8, -304.15)" xlink:href="#linear-gradient-3"/><linearGradient id="linear-gradient-17" x1="1535.12" y1="434.94" x2="1577.24" y2="434.94" gradientTransform="matrix(-0.71, 0.71, 0.71, 0.71, 888.25, -972.99)" xlink:href="#linear-gradient-3"/><linearGradient id="linear-gradient-18" x1="1645.24" y1="485.06" x2="1697.02" y2="485.06" gradientTransform="matrix(0.71, 0.71, 0.71, -0.71, -1544.19, -353.62)" xlink:href="#linear-gradient-3"/><linearGradient id="linear-gradient-19" x1="1609.56" y1="436.8" x2="1651.68" y2="436.8" gradientTransform="matrix(-0.71, 0.71, 0.71, 0.71, 865.14, -1025.09)" xlink:href="#linear-gradient-3"/><linearGradient id="linear-gradient-20" x1="1634.57" y1="555.75" x2="1676.69" y2="555.75" gradientTransform="matrix(-0.71, 0.71, 0.71, 0.71, 773.7, -1007.93)" xlink:href="#linear-gradient-3"/><linearGradient id="linear-gradient-21" x1="1496.94" y1="68.59" x2="1605.24" y2="68.59" gradientTransform="matrix(0.71, 0.71, 0.71, -0.71, -1044.78, -979.7)" xlink:href="#linear-gradient-3"/><linearGradient id="linear-gradient-22" x1="1430.75" y1="12.03" x2="1517.39" y2="12.03" gradientTransform="matrix(0.71, 0.71, 0.71, -0.71, -873.3, -1021.79)" xlink:href="#linear-gradient-3"/><linearGradient id="linear-gradient-23" x1="1409.57" y1="104.7" x2="1476.2" y2="104.7" gradientTransform="matrix(0.71, 0.71, 0.71, -0.71, -885.59, -841.53)" xlink:href="#linear-gradient-3"/><linearGradient id="linear-gradient-24" x1="1363.64" y1="42.6" x2="1417.85" y2="42.6" gradientTransform="matrix(-0.71, 0.71, 0.71, 0.71, 1214.14, -970.93)" xlink:href="#linear-gradient-3"/><linearGradient id="linear-gradient-25" x1="1529.12" y1="221.67" x2="1637.43" y2="221.67" gradientTransform="matrix(0.71, 0.71, 0.71, -0.71, -1207.97, -741.13)" xlink:href="#linear-gradient-3"/><linearGradient id="linear-gradient-26" x1="1462.93" y1="165.11" x2="1549.58" y2="165.11" gradientTransform="matrix(0.71, 0.71, 0.71, -0.71, -1036.49, -783.22)" xlink:href="#linear-gradient-3"/><linearGradient id="linear-gradient-27" x1="1441.75" y1="257.78" x2="1508.38" y2="257.78" gradientTransform="matrix(0.71, 0.71, 0.71, -0.71, -1048.78, -602.96)" xlink:href="#linear-gradient-3"/><linearGradient id="linear-gradient-28" x1="1395.83" y1="195.68" x2="1450.04" y2="195.68" gradientTransform="matrix(-0.71, 0.71, 0.71, 0.71, 1096.46, -948.85)" xlink:href="#linear-gradient-3"/><linearGradient id="linear-gradient-29" x1="1597.76" y1="566.53" x2="1728.43" y2="566.53" gradientTransform="matrix(0.71, 0.71, 0.71, -0.71, -1588.08, -208.86)" xlink:href="#linear-gradient-3"/><linearGradient id="linear-gradient-30" x1="1517.91" y1="498.29" x2="1622.44" y2="498.29" gradientTransform="matrix(0.71, 0.71, 0.71, -0.71, -1381.21, -259.64)" xlink:href="#linear-gradient-3"/><linearGradient id="linear-gradient-31" x1="1492.35" y1="610.1" x2="1572.74" y2="610.1" gradientTransform="matrix(0.71, 0.71, 0.71, -0.71, -1396.03, -42.17)" xlink:href="#linear-gradient-3"/><linearGradient id="linear-gradient-32" x1="1436.95" y1="535.17" x2="1502.35" y2="535.17" gradientTransform="matrix(-0.71, 0.71, 0.71, 0.71, 842.72, -882.45)" xlink:href="#linear-gradient-3"/><linearGradient id="linear-gradient-33" x1="1636.59" y1="751.22" x2="1767.26" y2="751.22" gradientTransform="matrix(0.71, 0.71, 0.71, -0.71, -1784.96, 78.96)" xlink:href="#linear-gradient-3"/><linearGradient id="linear-gradient-34" x1="1556.74" y1="682.98" x2="1661.27" y2="682.98" gradientTransform="matrix(0.71, 0.71, 0.71, -0.71, -1578.09, 28.18)" xlink:href="#linear-gradient-3"/><linearGradient id="linear-gradient-35" x1="1531.19" y1="794.79" x2="1611.57" y2="794.79" gradientTransform="matrix(0.71, 0.71, 0.71, -0.71, -1592.91, 245.65)" xlink:href="#linear-gradient-3"/><linearGradient id="linear-gradient-36" x1="1475.78" y1="719.86" x2="1541.18" y2="719.86" gradientTransform="matrix(-0.71, 0.71, 0.71, 0.71, 700.76, -855.82)" xlink:href="#linear-gradient-3"/><linearGradient id="linear-gradient-37" x1="1463.67" y1="630.46" x2="1547.84" y2="630.46" gradientTransform="matrix(0.71, 0.71, 0.71, -0.71, -1364.69, 11.53)" xlink:href="#linear-gradient-3"/><linearGradient id="linear-gradient-38" x1="1412.24" y1="586.51" x2="1479.57" y2="586.51" gradientTransform="matrix(0.71, 0.71, 0.71, -0.71, -1231.45, -21.18)" xlink:href="#linear-gradient-3"/><linearGradient id="linear-gradient-39" x1="1395.78" y1="658.52" x2="1447.56" y2="658.52" gradientTransform="matrix(0.71, 0.71, 0.71, -0.71, -1240.99, 118.9)" xlink:href="#linear-gradient-3"/><linearGradient id="linear-gradient-40" x1="1360.1" y1="610.26" x2="1402.22" y2="610.26" gradientTransform="matrix(-0.71, 0.71, 0.71, 0.71, 815.54, -797.89)" xlink:href="#linear-gradient-3"/><linearGradient id="linear-gradient-41" x1="1488.69" y1="749.42" x2="1572.85" y2="749.42" gradientTransform="matrix(0.71, 0.71, 0.71, -0.71, -1491.5, 196.92)" xlink:href="#linear-gradient-3"/><linearGradient id="linear-gradient-42" x1="1437.25" y1="705.46" x2="1504.58" y2="705.46" gradientTransform="matrix(0.71, 0.71, 0.71, -0.71, -1358.26, 164.21)" xlink:href="#linear-gradient-3"/><linearGradient id="linear-gradient-43" x1="1420.79" y1="777.48" x2="1472.57" y2="777.48" gradientTransform="matrix(0.71, 0.71, 0.71, -0.71, -1367.8, 304.28)" xlink:href="#linear-gradient-3"/><linearGradient id="linear-gradient-44" x1="1385.11" y1="729.22" x2="1427.23" y2="729.22" gradientTransform="matrix(-0.71, 0.71, 0.71, 0.71, 724.1, -780.73)" xlink:href="#linear-gradient-3"/><linearGradient id="linear-gradient-45" x1="1579.46" y1="-26.94" x2="1682.77" y2="-26.94" gradientTransform="matrix(0.71, 0.71, 0.71, -0.71, -1113.84, -1199.35)" xlink:href="#linear-gradient-3"/><linearGradient id="linear-gradient-46" x1="1554.2" y1="83.56" x2="1633.65" y2="83.56" gradientTransform="matrix(0.71, 0.71, 0.71, -0.71, -1128.49, -984.43)" xlink:href="#linear-gradient-3"/><linearGradient id="linear-gradient-47" x1="1499.45" y1="9.51" x2="1564.09" y2="9.51" gradientTransform="matrix(-0.71, 0.71, 0.71, 0.71, 1196.23, -1080.34)" xlink:href="#linear-gradient-3"/><linearGradient id="linear-gradient-48" x1="1617.83" y1="155.58" x2="1721.14" y2="155.58" gradientTransform="matrix(0.71, 0.71, 0.71, -0.71, -1308.41, -914.91)" xlink:href="#linear-gradient-3"/><linearGradient id="linear-gradient-49" x1="1592.58" y1="266.08" x2="1672.02" y2="266.08" gradientTransform="matrix(0.71, 0.71, 0.71, -0.71, -1323.06, -699.98)" xlink:href="#linear-gradient-3"/><linearGradient id="linear-gradient-50" x1="1537.82" y1="192.03" x2="1602.46" y2="192.03" gradientTransform="matrix(-0.71, 0.71, 0.71, 0.71, 1055.93, -1054.01)" xlink:href="#linear-gradient-3"/></defs><title>ffMesa de trabajo 1</title><g class="cls-3"><g id="Capa_1" data-name="Capa 1"><g class="cls-4"><g id="shutterstock_1061172467-editada.psd"><g id="shutterstock_1061172467-editada.psd-2" data-name="shutterstock_1061172467-editada.psd"><image id="shutterstock_1061172467-editada" width="7360" height="4912" transform="translate(-159.5 -73.5) scale(0.21)" xlink:href="../../Desktop/AF Pantallas/Clientes/shutterstock_1061172467-editada.jpg"/></g></g><g class="cls-5"><g class="cls-6"><rect class="cls-2" x="-420.5" y="-0.54" width="1801" height="795.04"/><g class="cls-7"><rect class="cls-1" x="1096.63" y="84.58" width="187.01" height="671.04"/></g></g><rect class="cls-8" x="-63.84" y="182.24" width="59.51" height="59.51" transform="translate(91.72 386.01) rotate(135)"/><rect class="cls-9" x="1.96" y="144.24" width="47.61" height="47.61" transform="translate(162.81 268.66) rotate(135)"/><rect class="cls-10" x="31.69" y="221.76" width="36.61" height="36.61" transform="translate(255.1 374.46) rotate(135)"/><rect class="cls-11" x="75.62" y="176.91" width="29.79" height="29.79" transform="translate(162.13 -7.82) rotate(45)"/><rect class="cls-12" x="-23.05" y="263.2" width="47.61" height="47.61" transform="translate(204.23 489.41) rotate(135)"/><rect class="cls-13" x="6.68" y="340.71" width="36.61" height="36.61" transform="translate(296.52 595.21) rotate(135)"/><rect class="cls-14" x="50.61" y="295.86" width="29.79" height="29.79" transform="translate(238.92 44.7) rotate(45)"/><rect class="cls-15" x="-33.92" y="306.43" width="59.51" height="59.51" transform="translate(230.61 576.85) rotate(135)"/><rect class="cls-16" x="31.88" y="268.43" width="47.61" height="47.61" transform="translate(301.7 459.5) rotate(135)"/><rect class="cls-17" x="61.61" y="345.94" width="36.61" height="36.61" transform="translate(393.99 565.3) rotate(135)"/><rect class="cls-18" x="105.54" y="301.09" width="29.79" height="29.79" transform="translate(258.71 7.39) rotate(45)"/><rect class="cls-19" x="-58.93" y="425.38" width="59.51" height="59.51" transform="translate(272.03 797.6) rotate(135)"/><rect class="cls-20" x="6.87" y="387.38" width="47.61" height="47.61" transform="translate(343.12 680.25) rotate(135)"/><rect class="cls-21" x="36.6" y="464.9" width="36.61" height="36.61" transform="translate(435.41 786.05) rotate(135)"/><rect class="cls-22" x="80.53" y="420.05" width="29.79" height="29.79" transform="translate(335.5 59.92) rotate(45)"/><rect class="cls-23" x="-37.84" y="466.75" width="36.61" height="36.61" transform="translate(309.65 841.86) rotate(135)"/><rect class="cls-24" x="6.08" y="421.9" width="29.79" height="29.79" transform="translate(315.01 113.1) rotate(45)"/><rect class="cls-25" x="-18.93" y="540.86" width="29.79" height="29.79" transform="translate(391.8 165.63) rotate(45)"/><rect class="cls-26" x="62.22" y="30.3" width="76.58" height="76.58" transform="translate(220.08 46.02) rotate(135)"/><rect class="cls-27" x="146.89" y="-18.61" width="61.27" height="61.27" transform="translate(311.56 -105) rotate(135)"/><rect class="cls-28" x="185.16" y="81.15" width="47.12" height="47.12" transform="translate(430.34 31.15) rotate(135)"/><rect class="cls-29" x="241.68" y="23.43" width="38.33" height="38.33" transform="translate(106.52 -171.97) rotate(45)"/><rect class="cls-30" x="30.03" y="183.38" width="76.58" height="76.58" transform="translate(273.38 330.1) rotate(135)"/><rect class="cls-31" x="114.71" y="134.48" width="61.27" height="61.27" transform="translate(364.86 179.09) rotate(135)"/><rect class="cls-32" x="152.97" y="234.23" width="47.12" height="47.12" transform="translate(483.64 315.24) rotate(135)"/><rect class="cls-33" x="209.5" y="176.51" width="38.33" height="38.33" transform="translate(205.34 -104.38) rotate(45)"/><rect class="cls-34" x="-57.69" y="520.33" width="92.4" height="92.4" transform="translate(380.97 975.26) rotate(135)"/><rect class="cls-35" x="44.46" y="461.33" width="73.92" height="73.92" transform="translate(491.34 793.06) rotate(135)"/><rect class="cls-36" x="90.63" y="581.68" width="56.84" height="56.84" transform="translate(634.64 957.33) rotate(135)"/><rect class="cls-37" x="158.82" y="512.05" width="46.25" height="46.25" transform="translate(431.71 28.09) rotate(45)"/><rect class="cls-38" x="-96.53" y="705.02" width="92.4" height="92.4" transform="translate(445.27 1317.99) rotate(135)"/><rect class="cls-39" x="5.63" y="646.02" width="73.92" height="73.92" transform="translate(555.65 1135.8) rotate(135)"/><rect class="cls-40" x="51.8" y="766.36" width="56.84" height="56.84" transform="translate(698.94 1300.06) rotate(135)"/><rect class="cls-41" x="119.99" y="696.73" width="46.25" height="46.25" transform="translate(550.93 109.64) rotate(45)"/><rect class="cls-42" x="116.09" y="600.71" width="59.51" height="59.51" transform="translate(694.77 973.14) rotate(135)"/><rect class="cls-43" x="181.89" y="562.71" width="47.61" height="47.61" transform="translate(765.86 855.79) rotate(135)"/><rect class="cls-44" x="211.62" y="640.22" width="36.61" height="36.61" transform="translate(858.16 961.59) rotate(135)"/><rect class="cls-45" x="255.54" y="595.37" width="29.79" height="29.79" transform="translate(510.73 -12.49) rotate(45)"/><rect class="cls-46" x="91.08" y="719.66" width="59.51" height="59.51" transform="translate(736.19 1193.89) rotate(135)"/><rect class="cls-47" x="156.88" y="681.66" width="47.61" height="47.61" transform="translate(807.28 1076.54) rotate(135)"/><rect class="cls-48" x="186.61" y="759.17" width="36.61" height="36.61" transform="translate(899.57 1182.34) rotate(135)"/><rect class="cls-49" x="230.53" y="714.33" width="29.79" height="29.79" transform="translate(587.52 40.04) rotate(45)"/><rect class="cls-50" x="-16.04" y="-63.46" width="73.05" height="73.05" transform="translate(15.92 -60.47) rotate(135)"/><rect class="cls-51" x="29.59" y="55.47" width="56.18" height="56.18" transform="translate(157.54 101.87) rotate(135)"/><rect class="cls-52" x="96.98" y="-13.34" width="45.7" height="45.7" transform="translate(41.82 -81.95) rotate(45)"/><rect class="cls-53" x="-54.41" y="119.06" width="73.05" height="73.05" transform="translate(79.48 278.25) rotate(135)"/><rect class="cls-54" x="-8.79" y="237.99" width="56.18" height="56.18" transform="translate(221.09 440.58) rotate(135)"/><rect class="cls-55" x="58.6" y="169.18" width="45.7" height="45.7" transform="translate(159.64 -1.35) rotate(45)"/></g></g></g></g></svg>