<?xml version="1.0" encoding="utf-8"?>
<!-- Generator: Adobe Illustrator 23.0.5, SVG Export Plug-In . SVG Version: 6.00 Build 0)  -->
<svg version="1.1" id="Capa_1" xmlns="http://www.w3.org/2000/svg" xmlns:xlink="http://www.w3.org/1999/xlink" x="0px" y="0px"
	 viewBox="0 0 239 116" style="enable-background:new 0 0 239 116;" xml:space="preserve">
<style type="text/css">
	.st0{fill:#C1CE00;}
	.st1{fill:#C1CE00;stroke:#C1CE00;stroke-width:0.15;stroke-miterlimit:10;}
	.st2{clip-path:url(#SVGID_2_);fill:#C1CE00;}
	.st3{clip-path:url(#SVGID_2_);fill:#FFFFFF;}
	.st4{clip-path:url(#SVGID_2_);fill:none;stroke:#FFFFFF;stroke-width:0.5;stroke-miterlimit:10;}
	.st5{fill:#FFFFFF;}
</style>
<g>
	<g>
		<polygon class="st0" points="123.2,53 110.2,42.5 123.2,32 136.2,42.5 		"/>
		<polygon class="st0" points="104.7,39.9 94.3,31.6 104.7,23.2 115.1,31.6 		"/>
		<polygon class="st1" points="97.2,55.9 89.2,49.5 97.2,43 105.2,49.5 		"/>
		<polygon class="st0" points="78.2,37.5 84.7,32.3 91.2,37.5 84.7,42.7 		"/>
		<g>
			<defs>
				<polygon id="SVGID_1_" points="167.5,28.2 151,15 134.6,28.2 151,41.5 134.6,54.7 151,67.9 167.5,54.7 183.9,41.5 				"/>
			</defs>
			<clipPath id="SVGID_2_">
				<use xlink:href="#SVGID_1_"  style="overflow:visible;"/>
			</clipPath>
			<polygon class="st2" points="167.5,28.2 151,41.5 134.6,28.2 151,15 			"/>
			<polygon class="st2" points="183.9,41.5 167.5,54.7 151,41.5 167.5,28.2 			"/>
			<polygon class="st2" points="167.5,54.7 151,67.9 134.6,54.7 151,41.5 			"/>
			<ellipse class="st3" cx="152.2" cy="26.7" rx="1" ry="0.8"/>
			<ellipse class="st3" cx="172.3" cy="40.4" rx="2.6" ry="2.1"/>
			<ellipse class="st3" cx="162" cy="43.7" rx="1.5" ry="1.2"/>
			<ellipse class="st3" cx="152.8" cy="34.6" rx="1.5" ry="1.2"/>
			<ellipse class="st3" cx="158.9" cy="53.6" rx="1.5" ry="1.2"/>
			<ellipse class="st3" cx="144.5" cy="55.3" rx="1.5" ry="1.2"/>
			<ellipse class="st3" cx="160.9" cy="29" rx="1" ry="0.8"/>
			<ellipse class="st3" cx="151.2" cy="61.5" rx="1" ry="0.8"/>
			<ellipse class="st3" cx="151.2" cy="46.6" rx="1" ry="0.8"/>
			<ellipse class="st3" cx="142" cy="28.4" rx="1" ry="0.8"/>
			<path class="st3" d="M152.8,34.8l-10.3-6l-1,0.2l-0.1-0.4l0.6-0.1l-0.8-0.5l1.5-6.6l-1.6-0.9l8.8-7.1l2,12.7l9.6,2.6L152.8,34.8z
				 M143.1,28.7l9.6,5.6l7.8-5.5l-8.6-2.3l0.1,0.7L143.1,28.7z M141.7,27.9l0.9,0.5l8.8-1.4l-0.1-0.6l-8.2-4.6L141.7,27.9z
				 M143.2,21.3l8.1,4.5l-1.8-11.5l-5.8,4.6L143.2,21.3z M141.8,20.5l0.9,0.5l0.4-1.6L141.8,20.5z"/>
			<path class="st3" d="M159,54l-8.8-8l11.3-2.5l-8.9-8.7l-9.4,4.2l-1.6-10.4l-8.5,1.2l-0.1-0.4l9-1.3l1.5,10.3l9.1-4.1l8.9,8.8
				l-1-14.3v-7.1l-8.2,5.1l0.5,6.9l-0.5,0l-0.5-7.1l9.2-5.7v7.8l1.1,14.8l0,0.1l0,0.1l-0.1,0L159,54z M151.1,46.3l7.7,6.9l2.9-9.2
				L151.1,46.3z"/>
			<path class="st3" d="M144.6,55.5l-9.9-5.3l16.5-4.4L144.6,55.5z M135.8,50.4l8.6,4.6l5.7-8.5L135.8,50.4z"/>
			<path class="st3" d="M158.1,65.6l-6.3-4.3l-0.1,0.1l0.3,0.3l-0.4,0.3l-0.8-0.7l-14,0.8l7.4-6.8l-0.2-0.1l7.2-0.8l-0.3-7.7
				l-3.8-5.7l14.8,2.6l10.5-3.4l1.1,14.6l-14.4-0.8L158.1,65.6z M152.1,61l5.6,3.8l0.9-10.5L152.1,61z M144.5,55.6l-6.6,6.1
				l12.5-0.7L144.5,55.6z M151.4,61.3l0.1,0.1l0-0.1L151.4,61.3z M145,55.4l6,5.5l0.5,0l-0.2-6.2L145,55.4z M151.7,54.6l0.2,5.9
				l6.4-6.6L151.7,54.6z M148.1,41.5l3.4,5.1l0.3,7.7l7-0.8l0,0l0.2,0l0.6-0.1l-0.1,0.1l13.7,0.8l-1-13.6l-10,3.2l-0.1,0L148.1,41.5
				z"/>
			<path class="st4" d="M161.5,29.2"/>
			<polygon class="st3" points="174.2,56.2 161.5,43.4 181.5,45.1 171.9,40.4 179.1,33 161.7,29.2 172.5,39.4 172.1,39.7 
				160.3,28.4 179.9,32.8 172.7,40.3 183.6,45.6 162.6,43.9 174.5,56 			"/>
			<ellipse class="st3" cx="151.2" cy="54.9" rx="1" ry="0.8"/>
			<ellipse class="st3" cx="172.8" cy="44.9" rx="1" ry="0.8"/>
		</g>
		<g>
			<path class="st5" d="M40.1,68.7l-1,4.2h-9.3l-5.5,22h-6l5.5-22h-9.3l1-4.2H40.1z"/>
		</g>
		<g>
			<path class="st5" d="M56.5,81.4c-1,3.8-4.6,5.8-11.1,5.8h-6c-0.6,2.6,1.1,3.9,5.3,3.9c3.2,0,6.2-0.8,9-2.4l-1,3.8
				c-2.5,1.6-5.6,2.4-9.4,2.4c-7.9,0-11.1-3.3-9.4-9.8c1.6-6.3,6.2-9.4,13.8-9.4C54.6,75.6,57.5,77.5,56.5,81.4z M40.4,83.6h6
				c2.5,0,3.9-0.7,4.3-2.1c0.3-1.4-1-2.1-3.9-2.1C43.5,79.4,41.3,80.8,40.4,83.6z"/>
		</g>
		<g>
			<path class="st5" d="M75.4,92.5c-2.4,1.6-5,2.4-7.9,2.4c-7.6,0-10.6-3.3-8.9-9.8c1.6-6.3,6.4-9.4,14.6-9.4c2.3,0,4.4,0.2,6.2,0.5
				l-1,3.8c-1.9-0.4-3.8-0.5-5.8-0.5c-4.5,0-7.2,1.9-8.1,5.6c-1,4,0.5,6,4.3,6c2.6,0,5.1-0.8,7.4-2.4L75.4,92.5z"/>
		</g>
		<g>
			<path class="st5" d="M80.3,85.2c1.6-6.5,6.3-9.8,14.1-9.8s10.8,3.3,9.2,9.8c-1.6,6.5-6.3,9.8-14.1,9.8
				C81.8,95,78.7,91.8,80.3,85.2z M90.4,91.2c3.7,0,6.1-2,7.1-6c1-3.9-0.4-5.9-4.1-5.9c-3.7,0-6.1,2-7,5.9
				C85.3,89.2,86.7,91.2,90.4,91.2z"/>
		</g>
		<g>
			<path class="st5" d="M110.5,75.6h5.4l-0.5,4.6c2.6-3.1,5.7-4.6,9.5-4.6c5.3,0,7.2,3,5.7,8.9c-1.7,6.9-6.5,10.4-14.3,10.4
				c-1.5,0-3-0.1-4.5-0.2l-1.8,7.1h-6L110.5,75.6z M112.8,90.4c1.3,0.4,2.8,0.5,4.7,0.5c3.6,0,6-2.1,7.1-6.4
				c0.8-3.3-0.1-4.9-2.8-4.9c-2.5,0-5,1.6-7.4,4.7L112.8,90.4z"/>
		</g>
		<g>
			<path class="st5" d="M156,81.4c-1,3.8-4.6,5.8-11.1,5.8h-6c-0.6,2.6,1.1,3.9,5.3,3.9c3.2,0,6.2-0.8,9-2.4l-1,3.8
				c-2.5,1.6-5.6,2.4-9.4,2.4c-7.9,0-11.1-3.3-9.4-9.8c1.6-6.3,6.2-9.4,13.8-9.4C154.1,75.6,157,77.5,156,81.4z M139.9,83.6h6
				c2.5,0,3.9-0.7,4.3-2.1c0.3-1.4-1-2.1-3.9-2.1C143,79.4,140.8,80.8,139.9,83.6z"/>
		</g>
		<g>
			<path class="st5" d="M157.3,93.9l1-4c2.4,0.9,5.4,1.3,8.9,1.3c2.6,0,4.1-0.7,4.4-2c0.3-1.2-0.4-1.8-2.2-1.8h-4.3
				c-4.9,0-6.8-2-5.8-5.9c1-4,5-6,12.1-6c3,0,5.7,0.4,8.2,1.1l-1,4c-2.4-0.9-5.2-1.3-8.3-1.3c-3.3,0-5.1,0.7-5.4,2
				c-0.3,1.2,0.5,1.8,2.4,1.8h3.9c5.3,0,7.5,2,6.5,5.9c-1,4-4.9,6-11.7,6C162.7,95,159.8,94.7,157.3,93.9z"/>
		</g>
		<g>
			<path class="st5" d="M198.2,92.5c-2.4,1.6-5,2.4-7.9,2.4c-7.6,0-10.6-3.3-8.9-9.8c1.6-6.3,6.4-9.4,14.6-9.4
				c2.3,0,4.4,0.2,6.2,0.5l-1,3.8c-1.9-0.4-3.8-0.5-5.8-0.5c-4.5,0-7.2,1.9-8.1,5.6c-1,4,0.5,6,4.3,6c2.6,0,5.1-0.8,7.4-2.4
				L198.2,92.5z"/>
		</g>
		<g>
			<path class="st5" d="M223.2,94.9h-5.4l0.5-4.9c-2.6,3.3-5.7,4.9-9.3,4.9c-5.6,0-7.6-3.1-6.1-9.4c1.6-6.6,6.6-9.9,14.9-9.9
				c2.8,0,6.1,0.3,9.9,0.8L223.2,94.9z M220.9,80c-0.9-0.3-2.4-0.4-4.6-0.4c-3.9,0-6.3,2-7.3,5.9c-0.9,3.6-0.2,5.4,2.2,5.4
				c2.9,0,5.7-1.7,8.2-5L220.9,80z"/>
		</g>
	</g>
</g>
</svg>
