<?xml version="1.0" encoding="utf-8"?>
<!-- Generator: Adobe Illustrator 22.0.0, SVG Export Plug-In . SVG Version: 6.00 Build 0)  -->
<svg version="1.1" id="Capa_1" xmlns="http://www.w3.org/2000/svg" xmlns:xlink="http://www.w3.org/1999/xlink" x="0px" y="0px"
	 viewBox="0 0 1366 768" style="enable-background:new 0 0 1366 768;" xml:space="preserve">
<style type="text/css">
	.st0{clip-path:url(#SVGID_2_);}
	.st1{clip-path:url(#SVGID_4_);}
	.st2{clip-path:url(#SVGID_7_);fill:none;}
	.st3{clip-path:url(#SVGID_4_);fill:#FFFFFF;}
	.st4{clip-path:url(#SVGID_4_);fill:#662D91;}
	.st5{clip-path:url(#SVGID_4_);fill:#29ABE2;}
	.st6{clip-path:url(#SVGID_4_);fill:#F7931E;}
	.st7{fill:#FFFFFF;}
	.st8{fill:url(#SVGID_8_);}
	.st9{fill:url(#SVGID_9_);}
	.st10{fill:url(#SVGID_10_);}
	.st11{fill:url(#SVGID_11_);}
	.st12{fill:url(#SVGID_12_);}
	.st13{fill:url(#SVGID_13_);}
	.st14{fill:url(#SVGID_14_);}
	.st15{fill:url(#SVGID_15_);}
	.st16{fill:url(#SVGID_16_);}
	.st17{fill:url(#SVGID_17_);}
	.st18{fill:url(#SVGID_18_);}
	.st19{fill:url(#SVGID_19_);}
	.st20{fill:url(#SVGID_20_);}
	.st21{fill:url(#SVGID_21_);}
	.st22{fill:url(#SVGID_22_);}
	.st23{fill:url(#SVGID_23_);}
	.st24{fill:url(#SVGID_24_);}
	.st25{fill:url(#SVGID_25_);}
	.st26{fill:url(#SVGID_26_);}
	.st27{fill:url(#SVGID_27_);}
	.st28{fill:url(#SVGID_28_);}
	.st29{fill:url(#SVGID_29_);}
	.st30{fill:url(#SVGID_30_);}
	.st31{fill:url(#SVGID_31_);}
	.st32{fill:url(#SVGID_32_);}
	.st33{fill:url(#SVGID_33_);}
	.st34{fill:url(#SVGID_34_);}
	.st35{fill:url(#SVGID_35_);}
	.st36{fill:url(#SVGID_36_);}
	.st37{fill:url(#SVGID_37_);}
	.st38{fill:url(#SVGID_38_);}
	.st39{fill:url(#SVGID_39_);}
	.st40{fill:url(#SVGID_40_);}
	.st41{fill:url(#SVGID_41_);}
	.st42{fill:url(#SVGID_42_);}
	.st43{fill:url(#SVGID_43_);}
	.st44{fill:url(#SVGID_44_);}
	.st45{fill:url(#SVGID_45_);}
	.st46{fill:url(#SVGID_46_);}
	.st47{fill:url(#SVGID_47_);}
	.st48{fill:url(#SVGID_48_);}
	.st49{fill:url(#SVGID_49_);}
	.st50{fill:url(#SVGID_50_);}
	.st51{fill:url(#SVGID_51_);}
	.st52{fill:url(#SVGID_52_);}
	.st53{fill:url(#SVGID_53_);}
	.st54{fill:url(#SVGID_54_);}
	.st55{fill:url(#SVGID_55_);}
	.st56{fill:url(#SVGID_56_);}
	.st57{fill:url(#SVGID_57_);}
	.st58{fill:url(#SVGID_58_);}
	.st59{fill:url(#SVGID_59_);}
	.st60{fill:url(#SVGID_60_);}
	.st61{fill:url(#SVGID_61_);}
	.st62{fill:url(#SVGID_62_);}
	.st63{fill:url(#SVGID_63_);}
	.st64{fill:#C1CE00;}
	.st65{fill:#C1CE00;stroke:#C1CE00;stroke-width:0.15;stroke-miterlimit:10;}
	.st66{clip-path:url(#SVGID_65_);}
	.st67{fill:none;stroke:#FFFFFF;stroke-width:0.5;stroke-miterlimit:10;}
	.st68{font-family:'Roboto-Bold';}
	.st69{font-size:28.8349px;}
	.st70{font-size:18.6562px;}
	.st71{fill:none;}
	.st72{font-family:'Poppins-Regular';}
	.st73{font-size:11.997px;}
	.st74{font-family:'MyriadPro-Regular';}
	.st75{font-size:12px;}
</style>
<g>
	<defs>
		<rect id="SVGID_1_" x="0" y="-2.9" width="1380" height="774.9"/>
	</defs>
	<clipPath id="SVGID_2_">
		<use xlink:href="#SVGID_1_"  style="overflow:visible;"/>
	</clipPath>
	<g id="shutterstock_x5F_1061172467-editada.psd" class="st0">
		<g id="shutterstock_x5F_1061172467-editada.psd_1_">
			
				<image style="overflow:visible;" width="7360" height="4912" id="shutterstock_x5F_1061172467-editada" xlink:href="shutterstock_1061172467-editada.jpg"  transform="matrix(0.2098 0 0 0.2098 -159.5 -73.5)">
			</image>
		</g>
	</g>
	<g class="st0">
		<defs>
			<rect id="SVGID_3_" x="6.5" y="0.5" width="1379" height="768"/>
		</defs>
		<clipPath id="SVGID_4_">
			<use xlink:href="#SVGID_3_"  style="overflow:visible;"/>
		</clipPath>
		<g class="st1">
			<g>
				<defs>
					<rect id="SVGID_5_" x="-420.5" y="-0.5" width="1801" height="795"/>
				</defs>
				<linearGradient id="SVGID_6_" gradientUnits="userSpaceOnUse" x1="-474.4046" y1="405.096" x2="1894.7462" y2="384.9501">
					<stop  offset="7.237146e-02" style="stop-color:#6BB4C3"/>
					<stop  offset="0.1896" style="stop-color:#73B8C6"/>
					<stop  offset="0.3658" style="stop-color:#87C2CE"/>
					<stop  offset="0.579" style="stop-color:#A9D3DC"/>
					<stop  offset="0.8193" style="stop-color:#D7EBEF"/>
					<stop  offset="1" style="stop-color:#FFFFFF"/>
				</linearGradient>
				<use xlink:href="#SVGID_5_"  style="overflow:visible;fill:url(#SVGID_6_);"/>
				<clipPath id="SVGID_7_">
					<use xlink:href="#SVGID_5_"  style="overflow:visible;"/>
				</clipPath>
				<rect x="1096.6" y="84.6" class="st2" width="187" height="671"/>
			</g>
		</g>
		<path class="st3" d="M1209.8,242.5H794.4c-7,0-12.7-5.7-12.7-12.7V107.2c0-7,5.7-12.7,12.7-12.7h415.4c7,0,12.7,5.7,12.7,12.7
			v122.5C1222.5,236.8,1216.8,242.5,1209.8,242.5z"/>
		<path class="st4" d="M898.2,250.7H771.5c-17.5,0-31.8-14.3-31.8-31.8V115.2c0-17.5,14.3-31.8,31.8-31.8h126.8
			c17.5,0,31.8,14.3,31.8,31.8v103.7C930,236.4,915.7,250.7,898.2,250.7z"/>
		<path class="st3" d="M1208.9,462.5H793.4c-7,0-12.7-5.7-12.7-12.7V328.2c0-7,5.7-12.7,12.7-12.7h415.5c7,0,12.7,5.7,12.7,12.7
			v121.6C1221.6,456.8,1215.9,462.5,1208.9,462.5z"/>
		<path class="st5" d="M898.2,469.7H771.5c-17.5,0-31.8-14.3-31.8-31.8V334.2c0-17.5,14.3-31.8,31.8-31.8h126.8
			c17.5,0,31.8,14.3,31.8,31.8v103.7C930,455.4,915.7,469.7,898.2,469.7z"/>
		<path class="st3" d="M1204.9,682.5H790.1c-7.2,0-13.1-5.9-13.1-13.1V539.6c0-7.2,5.9-13.1,13.1-13.1h414.7
			c7.2,0,13.1,5.9,13.1,13.1v129.8C1217.9,676.6,1212.1,682.5,1204.9,682.5z"/>
		<path class="st6" d="M898.2,688.4H771.5c-17.5,0-31.8-14.3-31.8-31.8V552.9c0-17.5,14.3-31.8,31.8-31.8h126.8
			c17.5,0,31.8,14.3,31.8,31.8v103.7C930,674.1,915.7,688.4,898.2,688.4z"/>
		<g class="st1">
			<path class="st7" d="M819.9,150.8c-0.3-0.9-0.5-1.8-0.8-2.6c-0.5-1.4-0.4-1.8,0.8-2.6c2.4-1.5,5.1-2.5,7.8-3.1
				c1.2-0.3,1.8,0.1,2.2,1.2c0.1,0.3,0.2,0.6,0.3,0.9c0.8,1.6,1.9,2.8,3.8,2.8c1.9,0,3.1-1.2,3.9-2.8c1.1-2.5,1.2-2.6,3.8-1.7
				c2.2,0.8,4.4,1.8,6.5,2.8c1.3,0.6,1.3,1.3,0.8,2.6c-0.4,1-0.7,2.1-0.7,3.1c0,2.7,2.3,4.3,4.8,3.5c0.7-0.2,1.3-0.6,1.9-0.9
				c0.9-0.5,1.6-0.3,2.1,0.5c1.6,2.6,2.8,5.3,3.5,8.3c0.3,1.2-0.1,1.8-1.3,2.2c-1.8,0.5-3.3,1.4-3.7,3.4c-0.5,2.1,0.9,4.1,3.2,4.8
				c1.9,0.6,2.2,1,1.5,2.9c-0.9,2.5-2.1,4.9-3.2,7.3c-0.6,1.3-1.4,1.4-2.7,0.7c-1.1-0.6-2.2-1-3.5-0.7c-2.3,0.5-3.5,2.7-2.8,5.3
				c0.1,0.6,0.4,1.1,0.6,1.6c0.3,0.8,0.2,1.5-0.6,1.9c-2.6,1.7-5.5,2.9-8.5,3.5c-0.8,0.2-1.4-0.2-1.8-1c-0.3-0.6-0.5-1.3-0.9-1.8
				c-1.6-2.3-4.4-2.4-6.2-0.2c-0.5,0.6-0.8,1.3-1.1,2c-0.3,0.7-0.7,1.1-1.5,0.9c-3-0.7-5.8-1.7-8.5-3.4c-1.2-0.8-1.3-1.2-0.8-2.5
				c0.3-0.6,0.5-1.3,0.6-2c0.2-1.6-0.2-3-1.6-3.9c-1.4-1-2.8-0.8-4.2-0.1c-0.2,0.1-0.5,0.3-0.7,0.4c-0.9,0.5-1.5,0.4-2.1-0.4
				c-1.7-2.7-2.9-5.6-3.6-8.7c-0.2-0.9,0.3-1.4,1.1-1.8c0.6-0.2,1.3-0.5,1.8-0.8c2.2-1.5,2.4-4.2,0.4-6c-0.6-0.5-1.4-0.9-2.2-1.2
				c-1.2-0.5-1.5-0.9-1.2-2.2c0.3-1.3,0.7-2.6,1.2-3.9c0.6-1.4,1.3-2.8,2.1-4.2c0.6-1.2,1.3-1.2,2.5-0.6c0.9,0.4,2,0.9,3,0.9
				C818.3,155,819.8,153.2,819.9,150.8z M834,161.1c-4.5,0-8.1,3.6-8.1,8c0,4.4,3.6,8.1,8.1,8.1c4.4,0,8-3.6,8.1-8
				C842.1,164.7,838.6,161.1,834,161.1z"/>
			<path class="st7" d="M829.5,112.9c-0.7-0.5-1.2-0.8-1.7-1.1c-1.1-0.8-1.4-2.2-0.6-3.3c0.7-1.1,2.1-1.5,3.2-0.8
				c2.9,1.9,5.9,3.8,8.7,5.8c1.3,0.9,1.2,2.8-0.2,3.9c-2.2,1.7-4.4,3.3-6.5,5c-0.5,0.4-1,0.8-1.5,1.2c-1.2,0.9-2.6,0.7-3.5-0.4
				c-0.9-1-0.7-2.6,0.3-3.5c0.6-0.6,1.3-1.1,1.9-1.8c-1.6,0.2-3.2,0.3-4.8,0.6c-15.6,3-27.6,11.2-35.7,24.8
				c-6,10.1-8.1,21.1-6.6,32.8c2.6,20.5,17.8,37.7,38.1,43c26.8,7,53.7-8.1,62.2-33.9c1.5-4.6,2.4-9.4,2.5-14.3c0-0.5,0-1,0-1.4
				c0.1-1.6,1.1-2.7,2.5-2.7c1.4,0,2.6,1.2,2.6,2.8c0,1.8-0.1,3.5-0.2,5.3c-1.4,13.5-6.9,25.2-16.5,34.8
				c-9.4,9.4-20.8,14.8-34.1,16.2c-28.7,3.1-55.7-16.8-61.2-45.2c-5.8-29.9,12.5-58.7,42-66.1c2.6-0.7,5.3-0.9,8-1.4
				C828.5,113,828.9,113,829.5,112.9z"/>
			<path class="st7" d="M861.3,124.9c0-1.7,1.3-3,3-3c1.7,0,3.1,1.3,3.1,3c0,1.7-1.4,3.1-3.1,3.1C862.6,128,861.3,126.6,861.3,124.9
				z"/>
			<path class="st7" d="M882.7,156.1c0-1.7,1.3-3,3-3.1c1.7,0,3.1,1.4,3.1,3.1c0,1.7-1.4,3-3.1,3C884,159.1,882.7,157.8,882.7,156.1
				z"/>
			<path class="st7" d="M871.4,134.1c0-1.7,1.3-3,3-3c1.7,0,3,1.4,3.1,3c0,1.7-1.4,3.1-3.1,3.1C872.7,137.1,871.4,135.8,871.4,134.1
				z"/>
			<path class="st7" d="M855.2,118.6c0,1.7-1.3,3.1-3,3.1c-1.7,0-3.1-1.4-3.1-3.1c0-1.7,1.4-3,3.1-3
				C853.9,115.5,855.2,116.9,855.2,118.6z"/>
			<path class="st7" d="M881.7,147.8c-1.7,0-3-1.3-3-3c0-1.7,1.3-3,3-3.1c1.7,0,3.1,1.4,3.1,3.1
				C884.8,146.5,883.4,147.8,881.7,147.8z"/>
		</g>
		<g class="st1">
			<path class="st7" d="M891,441c-9.9,0-19.6,0-29.6,0c0-13.3,0-26.5,0-39.8c-0.1,0-0.2,0-0.2-0.1c-0.3,0.4-0.7,0.8-1,1.2
				c-4.3,4.9-9.6,8.2-15.8,10c-5.1,1.5-10.6-1.9-11.7-7.3c-1.1-5.3,2.6-10.6,7.9-11.3c5.7-0.8,10.8-3,15.2-6.6
				c2.1-1.7,3.9-3.8,5.7-5.8c0.6-0.6,1-1.4,1.3-2.2c2.8-5.9,9.1-9.2,15.6-8.2c6.3,1,11.4,6,12.3,12.3c0.1,0.9,0.2,1.8,0.2,2.8
				c0,18,0,36,0,53.9C891,440.2,891,440.5,891,441z"/>
			<path class="st7" d="M827.2,393.3c-5.7,4.7-6.7,12.4-2.6,18.4c-6.1-2.2-11-5.7-15.1-10.9c0,6.9,0,13.5,0,20.2
				c0,6.6,0,13.3,0,19.9c-9.8,0-19.6,0-29.6,0c0-0.4,0-0.7,0-1.1c0.1-18.1,0.1-36.3,0.2-54.4c0-7,5-13,11.7-14.4
				c7-1.4,13.8,2.2,16.7,8.7c0.4,1,1.2,1.9,1.9,2.8c4.3,5.1,9.7,8.6,16.2,10.4c0.2,0,0.3,0.1,0.5,0.2
				C827,393.2,827.1,393.2,827.2,393.3z"/>
			<path class="st7" d="M794.8,359.8c-8.2,0-14.8-6.7-14.7-14.9c0-8.1,6.7-14.7,14.8-14.7c8.2,0,14.8,6.7,14.7,14.9
				C809.5,353.2,802.9,359.8,794.8,359.8z"/>
			<path class="st7" d="M861.4,345c0-8.2,6.6-14.7,14.9-14.7c8.1,0,14.7,6.7,14.7,14.8c0,8.2-6.7,14.7-14.9,14.7
				C867.9,359.8,861.4,353.1,861.4,345z"/>
		</g>
		<g class="st1">
			<path class="st7" d="M789.9,632.9c-5.5,0-11,0-16.6,0c-2.3,0-3.1-0.8-3.1-3.1c0-5.6,0-11.2,0-16.8c0-11.5,8.9-20.2,20.4-20
				c10.1,0.2,18.8,8.7,19.1,18.8c0.2,6.2,0.1,12.4,0,18.6c0,1.7-1,2.6-2.8,2.6C801.3,632.9,795.6,632.9,789.9,632.9z"/>
			<path class="st7" d="M881,632.9c-5.6,0-11.1,0-16.7,0c-2.2,0-3.1-0.8-3.1-3c0-5.7,0-11.4,0-17.1c0-10.5,8.2-19.3,18.4-19.8
				c10.8-0.6,19.8,7.1,21,17.7c0.1,0.6,0.1,1.2,0.1,1.8c0,5.9,0,11.8,0,17.7c0,1.9-0.9,2.8-2.8,2.8
				C892.3,632.9,886.7,632.9,881,632.9z"/>
			<path class="st7" d="M835.5,650.1c-5.6,0-11.1,0-16.7,0c-2.3,0-3.1-0.8-3.1-3c0-5.7,0-11.4,0-17.1c0-10.4,7.7-18.8,17.9-19.8
				c9.9-1,19,5.7,21.1,15.6c0.3,1.3,0.4,2.7,0.4,4c0,5.8,0,11.5,0,17.3c0,2.1-0.9,2.9-2.9,2.9C846.7,650.1,841.1,650.1,835.5,650.1z
				"/>
			<path class="st7" d="M775.6,578.1c0-7.9,6.5-14.4,14.4-14.4c7.9,0,14.4,6.5,14.4,14.4c0,7.9-6.5,14.4-14.4,14.4
				C782.1,592.5,775.6,586,775.6,578.1z"/>
			<path class="st7" d="M835.5,609.7c-7.9,0-14.4-6.5-14.4-14.4c0-7.9,6.5-14.4,14.4-14.4c7.9,0,14.4,6.5,14.4,14.4
				C849.9,603.2,843.4,609.7,835.5,609.7z"/>
			<path class="st7" d="M895.4,578.1c0,7.9-6.5,14.4-14.4,14.4c-7.9,0-14.4-6.5-14.4-14.4c0-7.9,6.5-14.4,14.4-14.4
				C888.9,563.7,895.4,570.2,895.4,578.1z"/>
		</g>
		<g class="st1">
			<g>
				
					<linearGradient id="SVGID_8_" gradientUnits="userSpaceOnUse" x1="1643.6017" y1="211.9982" x2="1727.7633" y2="211.9982" gradientTransform="matrix(-1 0 0 1 1651.5978 0)">
					<stop  offset="0" style="stop-color:#D8D8D7"/>
					<stop  offset="1" style="stop-color:#E2E2E2"/>
				</linearGradient>
				<polygon class="st8" points="-34.1,254.1 8,212 -34.1,169.9 -76.2,212 				"/>
				
					<linearGradient id="SVGID_9_" gradientUnits="userSpaceOnUse" x1="1592.1694" y1="168.0471" x2="1659.4988" y2="168.0471" gradientTransform="matrix(-1 0 0 1 1651.5978 0)">
					<stop  offset="0" style="stop-color:#D8D8D7"/>
					<stop  offset="1" style="stop-color:#E2E2E2"/>
				</linearGradient>
				<polygon class="st9" points="25.8,201.7 59.4,168 25.8,134.4 -7.9,168 				"/>
				
					<linearGradient id="SVGID_10_" gradientUnits="userSpaceOnUse" x1="1575.71" y1="240.0617" x2="1627.4862" y2="240.0617" gradientTransform="matrix(-1 0 0 1 1651.5978 0)">
					<stop  offset="0" style="stop-color:#D8D8D7"/>
					<stop  offset="1" style="stop-color:#E2E2E2"/>
				</linearGradient>
				<polygon class="st10" points="50,265.9 75.9,240.1 50,214.2 24.1,240.1 				"/>
				
					<linearGradient id="SVGID_11_" gradientUnits="userSpaceOnUse" x1="1540.0244" y1="191.8013" x2="1582.1503" y2="191.8013" gradientTransform="matrix(-1 0 0 1 1651.5978 0)">
					<stop  offset="0" style="stop-color:#D8D8D7"/>
					<stop  offset="1" style="stop-color:#E2E2E2"/>
				</linearGradient>
				<polygon class="st11" points="111.6,191.8 90.5,170.7 69.4,191.8 90.5,212.9 				"/>
				<g>
					
						<linearGradient id="SVGID_12_" gradientUnits="userSpaceOnUse" x1="1668.6122" y1="330.9529" x2="1752.7739" y2="330.9529" gradientTransform="matrix(-1 0 0 1 1651.5978 0)">
						<stop  offset="0" style="stop-color:#D8D8D7"/>
						<stop  offset="1" style="stop-color:#E2E2E2"/>
					</linearGradient>
					<polygon class="st12" points="-59.1,373 -17,331 -59.1,288.9 -101.2,331 					"/>
					
						<linearGradient id="SVGID_13_" gradientUnits="userSpaceOnUse" x1="1617.1801" y1="287.0018" x2="1684.5094" y2="287.0018" gradientTransform="matrix(-1 0 0 1 1651.5978 0)">
						<stop  offset="0" style="stop-color:#D8D8D7"/>
						<stop  offset="1" style="stop-color:#E2E2E2"/>
					</linearGradient>
					<polygon class="st13" points="0.8,320.7 34.4,287 0.8,253.3 -32.9,287 					"/>
					
						<linearGradient id="SVGID_14_" gradientUnits="userSpaceOnUse" x1="1600.7205" y1="359.0164" x2="1652.4968" y2="359.0164" gradientTransform="matrix(-1 0 0 1 1651.5978 0)">
						<stop  offset="0" style="stop-color:#D8D8D7"/>
						<stop  offset="1" style="stop-color:#E2E2E2"/>
					</linearGradient>
					<polygon class="st14" points="25,384.9 50.9,359 25,333.1 -0.9,359 					"/>
					
						<linearGradient id="SVGID_15_" gradientUnits="userSpaceOnUse" x1="1565.035" y1="310.756" x2="1607.1609" y2="310.756" gradientTransform="matrix(-1 0 0 1 1651.5978 0)">
						<stop  offset="0" style="stop-color:#D8D8D7"/>
						<stop  offset="1" style="stop-color:#E2E2E2"/>
					</linearGradient>
					<polygon class="st15" points="86.6,310.8 65.5,289.7 44.4,310.8 65.5,331.8 					"/>
				</g>
			</g>
			<g>
				
					<linearGradient id="SVGID_16_" gradientUnits="userSpaceOnUse" x1="1613.6821" y1="336.1845" x2="1697.8439" y2="336.1845" gradientTransform="matrix(-1 0 0 1 1651.5978 0)">
					<stop  offset="0" style="stop-color:#D8D8D7"/>
					<stop  offset="1" style="stop-color:#E2E2E2"/>
				</linearGradient>
				<polygon class="st16" points="-4.2,378.3 37.9,336.2 -4.2,294.1 -46.2,336.2 				"/>
				
					<linearGradient id="SVGID_17_" gradientUnits="userSpaceOnUse" x1="1562.25" y1="292.2334" x2="1629.5793" y2="292.2334" gradientTransform="matrix(-1 0 0 1 1651.5978 0)">
					<stop  offset="0" style="stop-color:#D8D8D7"/>
					<stop  offset="1" style="stop-color:#E2E2E2"/>
				</linearGradient>
				<polygon class="st17" points="55.7,325.9 89.3,292.2 55.7,258.6 22,292.2 				"/>
				
					<linearGradient id="SVGID_18_" gradientUnits="userSpaceOnUse" x1="1545.7904" y1="364.248" x2="1597.5668" y2="364.248" gradientTransform="matrix(-1 0 0 1 1651.5978 0)">
					<stop  offset="0" style="stop-color:#D8D8D7"/>
					<stop  offset="1" style="stop-color:#E2E2E2"/>
				</linearGradient>
				<polygon class="st18" points="79.9,390.1 105.8,364.2 79.9,338.4 54,364.2 				"/>
				
					<linearGradient id="SVGID_19_" gradientUnits="userSpaceOnUse" x1="1510.105" y1="315.9876" x2="1552.2308" y2="315.9876" gradientTransform="matrix(-1 0 0 1 1651.5978 0)">
					<stop  offset="0" style="stop-color:#D8D8D7"/>
					<stop  offset="1" style="stop-color:#E2E2E2"/>
				</linearGradient>
				<polygon class="st19" points="141.5,316 120.4,294.9 99.4,316 120.4,337.1 				"/>
				<g>
					
						<linearGradient id="SVGID_20_" gradientUnits="userSpaceOnUse" x1="1638.6927" y1="455.1392" x2="1722.8544" y2="455.1392" gradientTransform="matrix(-1 0 0 1 1651.5978 0)">
						<stop  offset="0" style="stop-color:#D8D8D7"/>
						<stop  offset="1" style="stop-color:#E2E2E2"/>
					</linearGradient>
					<polygon class="st20" points="-29.2,497.2 12.9,455.1 -29.2,413.1 -71.3,455.1 					"/>
					
						<linearGradient id="SVGID_21_" gradientUnits="userSpaceOnUse" x1="1587.2606" y1="411.1881" x2="1654.59" y2="411.1881" gradientTransform="matrix(-1 0 0 1 1651.5978 0)">
						<stop  offset="0" style="stop-color:#D8D8D7"/>
						<stop  offset="1" style="stop-color:#E2E2E2"/>
					</linearGradient>
					<polygon class="st21" points="30.7,444.9 64.3,411.2 30.7,377.5 -3,411.2 					"/>
					
						<linearGradient id="SVGID_22_" gradientUnits="userSpaceOnUse" x1="1570.801" y1="483.2028" x2="1622.5773" y2="483.2028" gradientTransform="matrix(-1 0 0 1 1651.5978 0)">
						<stop  offset="0" style="stop-color:#D8D8D7"/>
						<stop  offset="1" style="stop-color:#E2E2E2"/>
					</linearGradient>
					<polygon class="st22" points="54.9,509.1 80.8,483.2 54.9,457.3 29,483.2 					"/>
					
						<linearGradient id="SVGID_23_" gradientUnits="userSpaceOnUse" x1="1535.1155" y1="434.9423" x2="1577.2415" y2="434.9423" gradientTransform="matrix(-1 0 0 1 1651.5978 0)">
						<stop  offset="0" style="stop-color:#D8D8D7"/>
						<stop  offset="1" style="stop-color:#E2E2E2"/>
					</linearGradient>
					<polygon class="st23" points="116.5,434.9 95.4,413.9 74.4,434.9 95.4,456 					"/>
				</g>
			</g>
			<g>
				
					<linearGradient id="SVGID_24_" gradientUnits="userSpaceOnUse" x1="1713.1334" y1="456.9954" x2="1797.2952" y2="456.9954" gradientTransform="matrix(-1 0 0 1 1651.5978 0)">
					<stop  offset="0" style="stop-color:#D8D8D7"/>
					<stop  offset="1" style="stop-color:#E2E2E2"/>
				</linearGradient>
				<polygon class="st24" points="-103.6,499.1 -61.5,457 -103.6,414.9 -145.7,457 				"/>
				
					<linearGradient id="SVGID_25_" gradientUnits="userSpaceOnUse" x1="1661.7013" y1="413.0443" x2="1729.0306" y2="413.0443" gradientTransform="matrix(-1 0 0 1 1651.5978 0)">
					<stop  offset="0" style="stop-color:#D8D8D7"/>
					<stop  offset="1" style="stop-color:#E2E2E2"/>
				</linearGradient>
				<polygon class="st25" points="-43.8,446.7 -10.1,413 -43.8,379.4 -77.4,413 				"/>
				
					<linearGradient id="SVGID_26_" gradientUnits="userSpaceOnUse" x1="1645.2417" y1="485.059" x2="1697.0181" y2="485.059" gradientTransform="matrix(-1 0 0 1 1651.5978 0)">
					<stop  offset="0" style="stop-color:#D8D8D7"/>
					<stop  offset="1" style="stop-color:#E2E2E2"/>
				</linearGradient>
				<polygon class="st26" points="-19.5,510.9 6.4,485.1 -19.5,459.2 -45.4,485.1 				"/>
				
					<linearGradient id="SVGID_27_" gradientUnits="userSpaceOnUse" x1="1609.5563" y1="436.7985" x2="1651.6821" y2="436.7985" gradientTransform="matrix(-1 0 0 1 1651.5978 0)">
					<stop  offset="0" style="stop-color:#D8D8D7"/>
					<stop  offset="1" style="stop-color:#E2E2E2"/>
				</linearGradient>
				<polygon class="st27" points="42,436.8 21,415.7 -0.1,436.8 21,457.9 				"/>
				<g>
					
						<linearGradient id="SVGID_28_" gradientUnits="userSpaceOnUse" x1="1738.144" y1="575.9501" x2="1822.3057" y2="575.9501" gradientTransform="matrix(-1 0 0 1 1651.5978 0)">
						<stop  offset="0" style="stop-color:#D8D8D7"/>
						<stop  offset="1" style="stop-color:#E2E2E2"/>
					</linearGradient>
					<polygon class="st28" points="-128.6,618 -86.5,576 -128.6,533.9 -170.7,576 					"/>
					
						<linearGradient id="SVGID_29_" gradientUnits="userSpaceOnUse" x1="1686.7119" y1="531.999" x2="1754.0413" y2="531.999" gradientTransform="matrix(-1 0 0 1 1651.5978 0)">
						<stop  offset="0" style="stop-color:#D8D8D7"/>
						<stop  offset="1" style="stop-color:#E2E2E2"/>
					</linearGradient>
					<polygon class="st29" points="-68.8,565.7 -35.1,532 -68.8,498.3 -102.4,532 					"/>
					
						<linearGradient id="SVGID_30_" gradientUnits="userSpaceOnUse" x1="1670.2523" y1="604.0137" x2="1722.0286" y2="604.0137" gradientTransform="matrix(-1 0 0 1 1651.5978 0)">
						<stop  offset="0" style="stop-color:#D8D8D7"/>
						<stop  offset="1" style="stop-color:#E2E2E2"/>
					</linearGradient>
					<polygon class="st30" points="-44.5,629.9 -18.7,604 -44.5,578.1 -70.4,604 					"/>
					
						<linearGradient id="SVGID_31_" gradientUnits="userSpaceOnUse" x1="1634.5668" y1="555.7532" x2="1676.6926" y2="555.7532" gradientTransform="matrix(-1 0 0 1 1651.5978 0)">
						<stop  offset="0" style="stop-color:#D8D8D7"/>
						<stop  offset="1" style="stop-color:#E2E2E2"/>
					</linearGradient>
					<polygon class="st31" points="17,555.8 -4,534.7 -25.1,555.8 -4,576.8 					"/>
				</g>
			</g>
			<g>
				
					<linearGradient id="SVGID_32_" gradientUnits="userSpaceOnUse" x1="1496.9359" y1="68.5876" x2="1605.2434" y2="68.5876" gradientTransform="matrix(-1 0 0 1 1651.5978 0)">
					<stop  offset="0" style="stop-color:#D8D8D7"/>
					<stop  offset="1" style="stop-color:#E2E2E2"/>
				</linearGradient>
				<polygon class="st32" points="100.5,122.7 154.7,68.6 100.5,14.4 46.4,68.6 				"/>
				
					<linearGradient id="SVGID_33_" gradientUnits="userSpaceOnUse" x1="1430.748" y1="12.0271" x2="1517.394" y2="12.0271" gradientTransform="matrix(-1 0 0 1 1651.5978 0)">
					<stop  offset="0" style="stop-color:#D8D8D7"/>
					<stop  offset="1" style="stop-color:#E2E2E2"/>
				</linearGradient>
				<polygon class="st33" points="177.5,55.4 220.8,12 177.5,-31.3 134.2,12 				"/>
				
					<linearGradient id="SVGID_34_" gradientUnits="userSpaceOnUse" x1="1409.5663" y1="104.7025" x2="1476.197" y2="104.7025" gradientTransform="matrix(-1 0 0 1 1651.5978 0)">
					<stop  offset="0" style="stop-color:#D8D8D7"/>
					<stop  offset="1" style="stop-color:#E2E2E2"/>
				</linearGradient>
				<polygon class="st34" points="208.7,138 242,104.7 208.7,71.4 175.4,104.7 				"/>
				
					<linearGradient id="SVGID_35_" gradientUnits="userSpaceOnUse" x1="1363.6427" y1="42.5963" x2="1417.8544" y2="42.5963" gradientTransform="matrix(-1 0 0 1 1651.5978 0)">
					<stop  offset="0" style="stop-color:#D8D8D7"/>
					<stop  offset="1" style="stop-color:#E2E2E2"/>
				</linearGradient>
				<polygon class="st35" points="288,42.6 260.8,15.5 233.7,42.6 260.8,69.7 				"/>
				<g>
					
						<linearGradient id="SVGID_36_" gradientUnits="userSpaceOnUse" x1="1529.1219" y1="221.6701" x2="1637.4294" y2="221.6701" gradientTransform="matrix(-1 0 0 1 1651.5978 0)">
						<stop  offset="0" style="stop-color:#D8D8D7"/>
						<stop  offset="1" style="stop-color:#E2E2E2"/>
					</linearGradient>
					<polygon class="st36" points="68.3,275.8 122.5,221.7 68.3,167.5 14.2,221.7 					"/>
					
						<linearGradient id="SVGID_37_" gradientUnits="userSpaceOnUse" x1="1462.9341" y1="165.1095" x2="1549.5801" y2="165.1095" gradientTransform="matrix(-1 0 0 1 1651.5978 0)">
						<stop  offset="0" style="stop-color:#D8D8D7"/>
						<stop  offset="1" style="stop-color:#E2E2E2"/>
					</linearGradient>
					<polygon class="st37" points="145.3,208.4 188.7,165.1 145.3,121.8 102,165.1 					"/>
					
						<linearGradient id="SVGID_38_" gradientUnits="userSpaceOnUse" x1="1441.7523" y1="257.785" x2="1508.3831" y2="257.785" gradientTransform="matrix(-1 0 0 1 1651.5978 0)">
						<stop  offset="0" style="stop-color:#D8D8D7"/>
						<stop  offset="1" style="stop-color:#E2E2E2"/>
					</linearGradient>
					<polygon class="st38" points="176.5,291.1 209.8,257.8 176.5,224.5 143.2,257.8 					"/>
					
						<linearGradient id="SVGID_39_" gradientUnits="userSpaceOnUse" x1="1395.8287" y1="195.6788" x2="1450.0404" y2="195.6788" gradientTransform="matrix(-1 0 0 1 1651.5978 0)">
						<stop  offset="0" style="stop-color:#D8D8D7"/>
						<stop  offset="1" style="stop-color:#E2E2E2"/>
					</linearGradient>
					<polygon class="st39" points="255.8,195.7 228.7,168.6 201.6,195.7 228.7,222.8 					"/>
				</g>
			</g>
			<g>
				
					<linearGradient id="SVGID_40_" gradientUnits="userSpaceOnUse" x1="1597.7612" y1="566.5297" x2="1728.4281" y2="566.5297" gradientTransform="matrix(-1 0 0 1 1651.5978 0)">
					<stop  offset="0" style="stop-color:#D8D8D7"/>
					<stop  offset="1" style="stop-color:#E2E2E2"/>
				</linearGradient>
				<polygon class="st40" points="-11.5,631.9 53.8,566.5 -11.5,501.2 -76.8,566.5 				"/>
				
					<linearGradient id="SVGID_41_" gradientUnits="userSpaceOnUse" x1="1517.9093" y1="498.2926" x2="1622.4427" y2="498.2926" gradientTransform="matrix(-1 0 0 1 1651.5978 0)">
					<stop  offset="0" style="stop-color:#D8D8D7"/>
					<stop  offset="1" style="stop-color:#E2E2E2"/>
				</linearGradient>
				<polygon class="st41" points="81.4,550.6 133.7,498.3 81.4,446 29.2,498.3 				"/>
				
					<linearGradient id="SVGID_42_" gradientUnits="userSpaceOnUse" x1="1492.3546" y1="610.1003" x2="1572.741" y2="610.1003" gradientTransform="matrix(-1 0 0 1 1651.5978 0)">
					<stop  offset="0" style="stop-color:#D8D8D7"/>
					<stop  offset="1" style="stop-color:#E2E2E2"/>
				</linearGradient>
				<polygon class="st42" points="119,650.3 159.2,610.1 119,569.9 78.9,610.1 				"/>
				
					<linearGradient id="SVGID_43_" gradientUnits="userSpaceOnUse" x1="1436.9504" y1="535.1727" x2="1502.3538" y2="535.1727" gradientTransform="matrix(-1 0 0 1 1651.5978 0)">
					<stop  offset="0" style="stop-color:#D8D8D7"/>
					<stop  offset="1" style="stop-color:#E2E2E2"/>
				</linearGradient>
				<polygon class="st43" points="214.6,535.2 181.9,502.5 149.2,535.2 181.9,567.9 				"/>
				<g>
					
						<linearGradient id="SVGID_44_" gradientUnits="userSpaceOnUse" x1="1636.5919" y1="751.2152" x2="1767.2588" y2="751.2152" gradientTransform="matrix(-1 0 0 1 1651.5978 0)">
						<stop  offset="0" style="stop-color:#D8D8D7"/>
						<stop  offset="1" style="stop-color:#E2E2E2"/>
					</linearGradient>
					<polygon class="st44" points="-50.3,816.5 15,751.2 -50.3,685.9 -115.7,751.2 					"/>
					
						<linearGradient id="SVGID_45_" gradientUnits="userSpaceOnUse" x1="1556.74" y1="682.9781" x2="1661.2734" y2="682.9781" gradientTransform="matrix(-1 0 0 1 1651.5978 0)">
						<stop  offset="0" style="stop-color:#D8D8D7"/>
						<stop  offset="1" style="stop-color:#E2E2E2"/>
					</linearGradient>
					<polygon class="st45" points="42.6,735.2 94.9,683 42.6,630.7 -9.7,683 					"/>
					
						<linearGradient id="SVGID_46_" gradientUnits="userSpaceOnUse" x1="1531.1853" y1="794.7858" x2="1611.5717" y2="794.7858" gradientTransform="matrix(-1 0 0 1 1651.5978 0)">
						<stop  offset="0" style="stop-color:#D8D8D7"/>
						<stop  offset="1" style="stop-color:#E2E2E2"/>
					</linearGradient>
					<polygon class="st46" points="80.2,835 120.4,794.8 80.2,754.6 40,794.8 					"/>
					
						<linearGradient id="SVGID_47_" gradientUnits="userSpaceOnUse" x1="1475.7811" y1="719.8582" x2="1541.1844" y2="719.8582" gradientTransform="matrix(-1 0 0 1 1651.5978 0)">
						<stop  offset="0" style="stop-color:#D8D8D7"/>
						<stop  offset="1" style="stop-color:#E2E2E2"/>
					</linearGradient>
					<polygon class="st47" points="175.8,719.9 143.1,687.2 110.4,719.9 143.1,752.6 					"/>
				</g>
			</g>
			<g>
				
					<linearGradient id="SVGID_48_" gradientUnits="userSpaceOnUse" x1="1463.6749" y1="630.4609" x2="1547.8367" y2="630.4609" gradientTransform="matrix(-1 0 0 1 1651.5978 0)">
					<stop  offset="0" style="stop-color:#D8D8D7"/>
					<stop  offset="1" style="stop-color:#E2E2E2"/>
				</linearGradient>
				<polygon class="st48" points="145.8,672.5 187.9,630.5 145.8,588.4 103.8,630.5 				"/>
				
					<linearGradient id="SVGID_49_" gradientUnits="userSpaceOnUse" x1="1412.2428" y1="586.5098" x2="1479.5721" y2="586.5098" gradientTransform="matrix(-1 0 0 1 1651.5978 0)">
					<stop  offset="0" style="stop-color:#D8D8D7"/>
					<stop  offset="1" style="stop-color:#E2E2E2"/>
				</linearGradient>
				<polygon class="st49" points="205.7,620.2 239.4,586.5 205.7,552.8 172,586.5 				"/>
				
					<linearGradient id="SVGID_50_" gradientUnits="userSpaceOnUse" x1="1395.7832" y1="658.5245" x2="1447.5596" y2="658.5245" gradientTransform="matrix(-1 0 0 1 1651.5978 0)">
					<stop  offset="0" style="stop-color:#D8D8D7"/>
					<stop  offset="1" style="stop-color:#E2E2E2"/>
				</linearGradient>
				<polygon class="st50" points="229.9,684.4 255.8,658.5 229.9,632.6 204,658.5 				"/>
				
					<linearGradient id="SVGID_51_" gradientUnits="userSpaceOnUse" x1="1360.0978" y1="610.264" x2="1402.2236" y2="610.264" gradientTransform="matrix(-1 0 0 1 1651.5978 0)">
					<stop  offset="0" style="stop-color:#D8D8D7"/>
					<stop  offset="1" style="stop-color:#E2E2E2"/>
				</linearGradient>
				<polygon class="st51" points="291.5,610.3 270.4,589.2 249.4,610.3 270.4,631.3 				"/>
				<g>
					
						<linearGradient id="SVGID_52_" gradientUnits="userSpaceOnUse" x1="1488.6855" y1="749.4156" x2="1572.8472" y2="749.4156" gradientTransform="matrix(-1 0 0 1 1651.5978 0)">
						<stop  offset="0" style="stop-color:#D8D8D7"/>
						<stop  offset="1" style="stop-color:#E2E2E2"/>
					</linearGradient>
					<polygon class="st52" points="120.8,791.5 162.9,749.4 120.8,707.3 78.8,749.4 					"/>
					
						<linearGradient id="SVGID_53_" gradientUnits="userSpaceOnUse" x1="1437.2534" y1="705.4645" x2="1504.5828" y2="705.4645" gradientTransform="matrix(-1 0 0 1 1651.5978 0)">
						<stop  offset="0" style="stop-color:#D8D8D7"/>
						<stop  offset="1" style="stop-color:#E2E2E2"/>
					</linearGradient>
					<polygon class="st53" points="180.7,739.1 214.3,705.5 180.7,671.8 147,705.5 					"/>
					
						<linearGradient id="SVGID_54_" gradientUnits="userSpaceOnUse" x1="1420.7938" y1="777.4792" x2="1472.5701" y2="777.4792" gradientTransform="matrix(-1 0 0 1 1651.5978 0)">
						<stop  offset="0" style="stop-color:#D8D8D7"/>
						<stop  offset="1" style="stop-color:#E2E2E2"/>
					</linearGradient>
					<polygon class="st54" points="204.9,803.4 230.8,777.5 204.9,751.6 179,777.5 					"/>
					
						<linearGradient id="SVGID_55_" gradientUnits="userSpaceOnUse" x1="1385.1083" y1="729.2188" x2="1427.2341" y2="729.2188" gradientTransform="matrix(-1 0 0 1 1651.5978 0)">
						<stop  offset="0" style="stop-color:#D8D8D7"/>
						<stop  offset="1" style="stop-color:#E2E2E2"/>
					</linearGradient>
					<polygon class="st55" points="266.5,729.2 245.4,708.2 224.4,729.2 245.4,750.3 					"/>
				</g>
			</g>
			<g>
				
					<linearGradient id="SVGID_56_" gradientUnits="userSpaceOnUse" x1="1658.3738" y1="40.5012" x2="1787.5083" y2="40.5012" gradientTransform="matrix(-1 0 0 1 1651.5978 0)">
					<stop  offset="0" style="stop-color:#D8D8D7"/>
					<stop  offset="1" style="stop-color:#E2E2E2"/>
				</linearGradient>
				<polygon class="st56" points="-71.3,105.1 -6.8,40.5 -71.3,-24.1 -135.9,40.5 				"/>
				
					<linearGradient id="SVGID_57_" gradientUnits="userSpaceOnUse" x1="1579.4581" y1="-26.9357" x2="1682.7659" y2="-26.9357" gradientTransform="matrix(-1 0 0 1 1651.5978 0)">
					<stop  offset="0" style="stop-color:#D8D8D7"/>
					<stop  offset="1" style="stop-color:#E2E2E2"/>
				</linearGradient>
				<polygon class="st57" points="20.5,24.7 72.1,-26.9 20.5,-78.6 -31.2,-26.9 				"/>
				
					<linearGradient id="SVGID_58_" gradientUnits="userSpaceOnUse" x1="1554.2032" y1="83.5609" x2="1633.6469" y2="83.5609" gradientTransform="matrix(-1 0 0 1 1651.5978 0)">
					<stop  offset="0" style="stop-color:#D8D8D7"/>
					<stop  offset="1" style="stop-color:#E2E2E2"/>
				</linearGradient>
				<polygon class="st58" points="57.7,123.3 97.4,83.6 57.7,43.8 18,83.6 				"/>
				
					<linearGradient id="SVGID_59_" gradientUnits="userSpaceOnUse" x1="1499.4487" y1="9.5119" x2="1564.0851" y2="9.5119" gradientTransform="matrix(-1 0 0 1 1651.5978 0)">
					<stop  offset="0" style="stop-color:#D8D8D7"/>
					<stop  offset="1" style="stop-color:#E2E2E2"/>
				</linearGradient>
				<polygon class="st59" points="152.1,9.5 119.8,-22.8 87.5,9.5 119.8,41.8 				"/>
				<g>
					
						<linearGradient id="SVGID_60_" gradientUnits="userSpaceOnUse" x1="1696.749" y1="223.021" x2="1825.8837" y2="223.021" gradientTransform="matrix(-1 0 0 1 1651.5978 0)">
						<stop  offset="0" style="stop-color:#D8D8D7"/>
						<stop  offset="1" style="stop-color:#E2E2E2"/>
					</linearGradient>
					<polygon class="st60" points="-109.7,287.6 -45.2,223 -109.7,158.5 -174.3,223 					"/>
					
						<linearGradient id="SVGID_61_" gradientUnits="userSpaceOnUse" x1="1617.8335" y1="155.584" x2="1721.1411" y2="155.584" gradientTransform="matrix(-1 0 0 1 1651.5978 0)">
						<stop  offset="0" style="stop-color:#D8D8D7"/>
						<stop  offset="1" style="stop-color:#E2E2E2"/>
					</linearGradient>
					<polygon class="st61" points="-17.9,207.2 33.8,155.6 -17.9,103.9 -69.5,155.6 					"/>
					
						<linearGradient id="SVGID_62_" gradientUnits="userSpaceOnUse" x1="1592.5785" y1="266.0806" x2="1672.0221" y2="266.0806" gradientTransform="matrix(-1 0 0 1 1651.5978 0)">
						<stop  offset="0" style="stop-color:#D8D8D7"/>
						<stop  offset="1" style="stop-color:#E2E2E2"/>
					</linearGradient>
					<polygon class="st62" points="19.3,305.8 59,266.1 19.3,226.4 -20.4,266.1 					"/>
					
						<linearGradient id="SVGID_63_" gradientUnits="userSpaceOnUse" x1="1537.824" y1="192.0316" x2="1602.4603" y2="192.0316" gradientTransform="matrix(-1 0 0 1 1651.5978 0)">
						<stop  offset="0" style="stop-color:#D8D8D7"/>
						<stop  offset="1" style="stop-color:#E2E2E2"/>
					</linearGradient>
					<polygon class="st63" points="113.8,192 81.5,159.7 49.1,192 81.5,224.3 					"/>
				</g>
			</g>
		</g>
		<g class="st1">
			
				<rect x="309.6" y="288.3" transform="matrix(0.7071 0.7071 -0.7071 0.7071 314.6623 -142.8205)" class="st64" width="40.2" height="40.2"/>
			
				<rect x="273.2" y="262.6" transform="matrix(0.7071 0.7071 -0.7071 0.7071 281.7977 -122.9112)" class="st64" width="32.2" height="32.2"/>
			
				<rect x="260.5" y="315" transform="matrix(0.7071 0.7071 -0.7071 0.7071 311.4278 -97.0629)" class="st65" width="24.8" height="24.8"/>
			
				<rect x="235.4" y="284.7" transform="matrix(-0.7071 0.7071 -0.7071 -0.7071 627.5061 329.6087)" class="st64" width="20.1" height="20.1"/>
			<g>
				<defs>
					<polygon id="SVGID_64_" points="426.6,269.6 390.6,233.6 354.6,269.6 390.6,305.6 354.6,341.6 390.6,377.6 426.6,341.6 
						462.6,305.6 					"/>
				</defs>
				<clipPath id="SVGID_65_">
					<use xlink:href="#SVGID_64_"  style="overflow:visible;"/>
				</clipPath>
				<g class="st66">
					
						<rect x="365.1" y="244.1" transform="matrix(0.7071 -0.7071 0.7071 0.7071 -76.2196 355.1462)" class="st64" width="50.9" height="50.9"/>
					
						<rect x="401.1" y="280.1" transform="matrix(0.7071 -0.7071 0.7071 0.7071 -91.1336 391.1518)" class="st64" width="50.9" height="50.9"/>
					
						<rect x="365.1" y="316.1" transform="matrix(0.7071 -0.7071 0.7071 0.7071 -127.1392 376.2378)" class="st64" width="50.9" height="50.9"/>
				</g>
				<g class="st66">
					<circle class="st7" cx="393.3" cy="265.5" r="2.3"/>
					<circle class="st7" cx="437.2" cy="302.6" r="5.6"/>
					<circle class="st7" cx="414.7" cy="311.6" r="3.4"/>
					<circle class="st7" cx="394.4" cy="286.9" r="3.4"/>
					<circle class="st7" cx="407.9" cy="338.6" r="3.4"/>
					<circle class="st7" cx="376.4" cy="343.1" r="3.4"/>
					<circle class="st7" cx="412.3" cy="271.6" r="2.3"/>
					<circle class="st7" cx="391" cy="360" r="2.3"/>
					<circle class="st7" cx="391" cy="319.5" r="2.3"/>
					<circle class="st7" cx="370.8" cy="270" r="2.3"/>
					<path class="st7" d="M394.4,287.6l-22.5-16.4l-2.2,0.4l-0.2-1l1.2-0.2l-1.7-1.2l3.3-18l-3.5-2.5l19.2-19.2l4.3,34.4l21.1,7
						L394.4,287.6z M373.4,270.9l21,15.3l17-14.9l-18.9-6.3l0.3,2L373.4,270.9z M370.2,268.7l2,1.4l19.4-3.9l-0.2-1.7l-18-12.6
						L370.2,268.7z M373.5,250.7l17.7,12.4l-3.9-31.3l-12.6,12.6L373.5,250.7z M370.5,248.6l2.1,1.4l0.8-4.3L370.5,248.6z"/>
					<path class="st7" d="M408.2,339.8l-19.3-21.7l24.8-6.8l-19.4-23.8L373.7,299l-3.4-28.4l-18.6,3.3l-0.2-1.1l19.7-3.5l3.3,27.9
						l19.9-11.1L414,310l-2.2-38.9V252l-18,13.8l1.1,18.8l-1.1,0.1l-1.1-19.4l20.2-15.5v21.3l2.3,40.4l0,0.2l0,0.4l-0.1,0
						L408.2,339.8z M390.9,318.7l16.8,18.9l6.3-25.1L390.9,318.7z"/>
					<path class="st7" d="M376.6,343.9l-21.7-14.4l36.1-12L376.6,343.9z M357.3,329.8l18.9,12.6l12.6-23L357.3,329.8z"/>
					<path class="st7" d="M406.1,371.2l-13.9-11.6l-0.3,0.4l0.6,0.7l-0.8,0.7l-1.7-1.9l-30.7,2.2l16.3-18.6l-0.3-0.4l15.7-2.2
						l-0.6-20.8l-8.4-15.5l32.5,7l23-9.2l2.3,39.6l-31.6-2.3L406.1,371.2z M392.9,358.8l12.3,10.3l2.1-28.7L392.9,358.8z M376.4,344
						l-14.5,16.6l27.3-1.9L376.4,344z M391.4,359.5l0.2,0.3l0-0.3L391.4,359.5z M377.4,343.5l13.1,14.9l1.1-0.1l-0.5-16.8
						L377.4,343.5z M392.2,341.4l0.5,16l14-18L392.2,341.4z M384.2,305.7l7.4,13.8l0.6,20.9l15.2-2.2l0-0.1l0.5,0l1.3-0.2l-0.2,0.3
						l29.9,2.1l-2.2-36.9l-22,8.8l-0.2,0L384.2,305.7z"/>
					<path class="st67" d="M413.5,272.3"/>
					<polygon class="st7" points="441.2,345.7 413.4,311 457.3,315.4 436.4,302.8 452,282.7 413.9,272.1 437.6,300 436.7,300.7 
						410.9,270.2 453.8,282.1 437.9,302.5 462,316.9 415.9,312.3 442.1,345.1 					"/>
					<circle class="st7" cx="391" cy="342" r="2.3"/>
					<circle class="st7" cx="438.3" cy="315" r="2.3"/>
				</g>
			</g>
			<g>
				<g>
					<path class="st7" d="M147.9,379.6l-2.3,11.5h-20.4l-12,59.8H100l12-59.8H91.5l2.3-11.5H147.9z"/>
				</g>
				<g>
					<path class="st7" d="M183.8,414.2c-2.1,10.4-10.2,15.6-24.2,15.6h-13.1c-1.4,7,2.5,10.6,11.7,10.6c6.9,0,13.5-2.2,19.6-6.5
						l-2.1,10.5c-5.5,4.3-12.4,6.5-20.6,6.5c-17.3,0-24.2-8.9-20.6-26.8c3.4-17,13.5-25.6,30.2-25.6
						C179.5,398.6,185.9,403.8,183.8,414.2z M148.4,420.2h13.2c5.5,0,8.6-1.9,9.4-5.6c0.7-3.8-2.1-5.6-8.5-5.6
						C155.2,408.9,150.5,412.7,148.4,420.2z"/>
				</g>
				<g>
					<path class="st7" d="M225.1,444.4c-5.2,4.3-10.9,6.5-17.2,6.5c-16.6,0-23.1-8.9-19.6-26.7c3.4-17.1,14.1-25.7,32-25.7
						c5,0,9.5,0.5,13.7,1.5l-2.1,10.5c-4.1-1-8.3-1.5-12.7-1.5c-9.8,0-15.7,5.1-17.7,15.2c-2.2,10.8,1,16.2,9.5,16.2
						c5.6,0,11.1-2.2,16.2-6.5L225.1,444.4z"/>
				</g>
				<g>
					<path class="st7" d="M235.8,424.7c3.6-17.8,13.8-26.7,30.7-26.7c16.9,0,23.6,8.9,20.1,26.7c-3.6,17.7-13.8,26.6-30.7,26.6
						C239,451.3,232.3,442.5,235.8,424.7z M258,440.9c8.1,0,13.3-5.5,15.5-16.4c2.1-10.7-0.9-16-9-16s-13.3,5.3-15.4,16
						C246.9,435.4,249.8,440.9,258,440.9z"/>
				</g>
				<g>
					<path class="st7" d="M301.8,398.6h11.7l-1,12.5c5.6-8.3,12.5-12.5,20.7-12.5c11.6,0,15.7,8,12.5,24.1
						c-3.8,18.8-14.2,28.2-31.2,28.2c-3.2,0-6.5-0.1-9.9-0.4l-3.9,19.4h-13.2L301.8,398.6z M307,438.8c2.8,1,6.2,1.4,10.2,1.4
						c8,0,13.1-5.8,15.4-17.4c1.8-8.9-0.3-13.3-6.2-13.3c-5.4,0-10.8,4.2-16.2,12.7L307,438.8z"/>
				</g>
				<g>
					<path class="st7" d="M401.6,414.2c-2.1,10.4-10.2,15.6-24.2,15.6h-13.1c-1.4,7,2.5,10.6,11.7,10.6c6.9,0,13.5-2.2,19.6-6.5
						l-2.1,10.5c-5.5,4.3-12.4,6.5-20.6,6.5c-17.3,0-24.2-8.9-20.6-26.8c3.4-17,13.5-25.6,30.2-25.6
						C397.3,398.6,403.7,403.8,401.6,414.2z M366.2,420.2h13.2c5.5,0,8.6-1.9,9.4-5.6c0.7-3.8-2.1-5.6-8.5-5.6
						C373,408.9,368.3,412.7,366.2,420.2z"/>
				</g>
				<g>
					<path class="st7" d="M404.5,448.4l2.2-11c5.3,2.3,11.8,3.5,19.4,3.5c5.7,0,8.9-1.8,9.6-5.5c0.7-3.3-0.9-5-4.7-5h-9.5
						c-10.6,0-14.9-5.3-12.8-15.9c2.2-11,11-16.4,26.6-16.4c6.6,0,12.6,1,18,3l-2.2,11c-5.3-2.3-11.4-3.5-18.2-3.5
						c-7.1,0-11.1,1.8-11.8,5.5c-0.7,3.3,1.1,5,5.2,5h8.5c11.6,0,16.4,5.3,14.3,15.9c-2.2,11-10.7,16.4-25.5,16.4
						C416.2,451.4,409.9,450.4,404.5,448.4z"/>
				</g>
				<g>
					<path class="st7" d="M494,444.4c-5.2,4.3-10.9,6.5-17.2,6.5c-16.6,0-23.1-8.9-19.6-26.7c3.4-17.1,14.1-25.7,32-25.7
						c5,0,9.5,0.5,13.7,1.5l-2.1,10.5c-4.1-1-8.3-1.5-12.7-1.5c-9.8,0-15.7,5.1-17.7,15.2c-2.2,10.8,1,16.2,9.5,16.2
						c5.6,0,11.1-2.2,16.2-6.5L494,444.4z"/>
				</g>
				<g>
					<path class="st7" d="M548.6,450.9h-11.7l1.2-13.5c-5.7,9-12.5,13.5-20.3,13.5c-12.2,0-16.6-8.5-13.3-25.5
						c3.6-17.9,14.4-26.9,32.5-26.9c6.1,0,13.3,0.7,21.6,2.1L548.6,450.9z M543.4,410.4c-2-0.8-5.3-1.2-10-1.2
						c-8.5,0-13.8,5.4-15.9,16.1c-2,9.7-0.3,14.6,4.9,14.6c6.4,0,12.4-4.6,17.8-13.7L543.4,410.4z"/>
				</g>
			</g>
		</g>
		<g class="st1">
			<text transform="matrix(1 0 0 1 948.6851 179.5645)" class="st68 st69">Proveedores</text>
		</g>
		<g class="st1">
			<text transform="matrix(1 0 0 1 948.6851 345.5645)" class="st68 st70">clientes</text>
		</g>
		<g class="st1">
			<rect x="949" y="360" class="st71" width="234.2" height="93"/>
			<text transform="matrix(1 0 0 1 949.0376 368.5176)"><tspan x="0" y="0" class="st72 st73">En esta sección encontrarás</tspan><tspan x="0" y="28.8" class="st72 st73">• Tracking de contendores</tspan><tspan x="0" y="43.2" class="st72 st73">• Información de pedidos </tspan><tspan x="0" y="57.6" class="st72 st73">• Visualización y descarga de documentos </tspan></text>
		</g>
		<g class="st1">
			<g>
				<g>
					<path d="M1157.8,471l-22.4-12l6.3,24.6l4.1-6.7l5.1,6.5l4.5-3.5l-5.1-6.5L1157.8,471z M1153.1,479.7l-1.9,1.5l-5.6-7.1
						l-3.4,5.4l-4.5-17.4l15.8,8.5l-6.1,2L1153.1,479.7z"/>
				</g>
			</g>
			<polygon class="st7" points="1153.1,479.7 1151.2,481.2 1145.7,474.1 1142.3,479.5 1137.8,462.1 1153.7,470.6 1147.6,472.6 			
				"/>
		</g>
		<g class="st1">
			<text transform="matrix(1 0 0 1 956.9297 616.8027)" class="st68 st69">colaboradores</text>
		</g>
	</g>
</g>
<text transform="matrix(1 0 0 1 568.0342 446.1152)" class="st74 st75">Lorem ipsum</text>
<text transform="matrix(1 0 0 1 471.4302 490.0264)" class="st74 st75">Lorem ipsum</text>
</svg>
