<svg xmlns="http://www.w3.org/2000/svg" viewBox="0 0 646.23 131.85"><defs><style>.cls-1{fill:#29abe2;}.cls-2,.cls-3{fill:none;stroke-miterlimit:10;stroke-width:6px;}.cls-2{stroke:#29abe2;}.cls-3{stroke:#999;}.cls-4{fill:#999;}.cls-5{fill:#e6e6e6;}.cls-6{fill:#fff;}.cls-7{font-size:11px;font-family:ArialMT, Arial;}.cls-8{letter-spacing:-0.07em;}.cls-9{letter-spacing:-0.02em;}</style></defs><title>eje4Recurso 2</title><g id="Capa_2" data-name="Capa 2"><g id="Capa_1-2" data-name="Capa 1"><circle class="cls-1" cx="44.14" cy="44.14" r="44.14"/><line class="cls-2" x1="43.71" y1="44.23" x2="414.07" y2="43.85"/><circle class="cls-1" cx="183.41" cy="44.23" r="44.14"/><line class="cls-3" x1="417.07" y1="42.85" x2="635.95" y2="45.85"/><circle class="cls-1" cx="318.4" cy="44.23" r="44.14"/><circle class="cls-1" cx="458.53" cy="44.23" r="44.14"/><circle class="cls-4" cx="591.81" cy="44.23" r="44.14"/><path class="cls-5" d="M578.72,41.48V25.6c0-.9.17-1.06,1.08-1.06h25.47c.89,0,1.05.15,1.05,1v31.8c0,.87-.14,1-1,1H579.73c-.84,0-1-.17-1-1ZM592.49,53h9c.52,0,.81-.24.81-.65s-.29-.66-.79-.68H583.72a1.86,1.86,0,0,0-.47,0,.62.62,0,0,0-.52.68.6.6,0,0,0,.6.61,3,3,0,0,0,.42,0Zm.06-23h-9.07c-.48,0-.75.25-.75.65s.28.65.75.67a2.62,2.62,0,0,0,.28,0h17.52c.17,0,.39.05.51,0s.48-.38.5-.59-.22-.48-.41-.65-.33-.05-.5-.05Zm0,18.66h8.78a3.65,3.65,0,0,0,.47,0c.34-.05.59-.28.54-.6a1.21,1.21,0,0,0-.43-.65c-.12-.1-.36-.06-.55-.06H583.71a2.15,2.15,0,0,0-.51,0,.62.62,0,0,0-.47.68.59.59,0,0,0,.57.59,3.65,3.65,0,0,0,.47,0Zm0-14.32h-8.78c-.16,0-.35,0-.46,0a1.19,1.19,0,0,0-.54.55.53.53,0,0,0,.4.69,2.09,2.09,0,0,0,.56.06h17.62a1.73,1.73,0,0,0,.51,0,.6.6,0,0,0,.47-.67.62.62,0,0,0-.57-.6,3.65,3.65,0,0,0-.47,0Zm0,4.33h-8.73c-.18,0-.4,0-.51,0s-.47.38-.49.59.23.47.42.64.33.06.5.06q8.85,0,17.71,0a2,2,0,0,0,.42,0,.65.65,0,0,0-.06-1.28,3.85,3.85,0,0,0-.48,0ZM587.64,43h-2.88c-.53,0-.85.26-.85.67s.31.66.86.66h5.71c.54,0,.85-.25.85-.66S591,43,590.47,43Zm9.82,0h-2.88c-.55,0-.85.25-.85.66s.29.67.84.67h5.8c.52,0,.82-.31.75-.75s-.38-.58-.78-.58Z"/><path class="cls-5" d="M577.39,29.2V57.42a2.24,2.24,0,0,0,.68,1.79,2.3,2.3,0,0,0,1.67.52h21.92c0,.94,0,1.85,0,2.75,0,.2-.33.41-.55.55s-.34,0-.51,0H575.16c-.93,0-1.09-.16-1.09-1.11V30.25c0-.89.16-1.05,1-1.05Z"/><path class="cls-5" d="M616.56,55.61h-8.08V43.06h8.08Z"/><path class="cls-5" d="M616.59,38h-8.12c0-1.07,0-2.12,0-3.17,0-.43.42-.53.82-.52h6.57a.65.65,0,0,1,.71.66C616.6,35.91,616.59,36.9,616.59,38Z"/><path class="cls-5" d="M608.77,57h7.47c-.08.16-.13.29-.2.4l-2.71,4.49c-.45.75-.93.75-1.42,0L609,57.41C608.94,57.29,608.88,57.17,608.77,57Z"/><path class="cls-5" d="M609.32,33.24c0-.55,0-1.08,0-1.59a2,2,0,0,1,1.94-1.72c.83,0,1.67,0,2.5,0a1.92,1.92,0,0,1,1.92,1.73,13.82,13.82,0,0,1,0,1.58Z"/><path class="cls-5" d="M608.47,41.65V39.34h8.09v2.31Z"/><path class="cls-6" d="M475.08,33.46,470.44,50a3.91,3.91,0,0,0-2.34-.35,4,4,0,0,0-2.05,1,3.41,3.41,0,0,1-3.28.85,3.26,3.26,0,0,1-1.49-.87,3.92,3.92,0,0,0-5.54-.2,3.53,3.53,0,0,1-4.73.14,4.43,4.43,0,0,0-4.85-.81l-4.65-15.54,3.78-1.19c4.19-1.31,8.38-2.63,12.57-3.93a1.75,1.75,0,0,1,.88,0q8,2.1,15.95,4.23Z"/><path class="cls-6" d="M437.49,54v-2a4.93,4.93,0,0,1,2.71.43,7.94,7.94,0,0,1,1.15.62,1.92,1.92,0,0,0,2.27-.1c.45-.31.93-.61,1.41-.88a4.86,4.86,0,0,1,6,.72,2.29,2.29,0,0,0,3.27.25,6.5,6.5,0,0,1,3.89-1.48,4.41,4.41,0,0,1,3.2,1.29,2.49,2.49,0,0,0,3.6.29,5.8,5.8,0,0,1,3.61-1.37A4.77,4.77,0,0,1,472,53.21a2.26,2.26,0,0,0,3.37.26A6.16,6.16,0,0,1,478,52.1l.64-.07v2a3.83,3.83,0,0,0-2.39,1.19,4.38,4.38,0,0,1-5.42-.15,3.54,3.54,0,0,0-2.39-1,2.86,2.86,0,0,0-2.17.92,4.56,4.56,0,0,1-5.91,0A3,3,0,0,0,456,55a4.65,4.65,0,0,1-5.95,0,2.93,2.93,0,0,0-4.35,0,4.59,4.59,0,0,1-5.95,0A3,3,0,0,0,437.49,54Z"/><path class="cls-6" d="M437.49,59.48V57.53a5,5,0,0,1,2.69.42,12.26,12.26,0,0,1,1.29.69,1.78,1.78,0,0,0,2-.07c.5-.31,1-.64,1.5-.94a4.88,4.88,0,0,1,6.08.71,2.28,2.28,0,0,0,3.23.24,6.6,6.6,0,0,1,3.84-1.49,4.77,4.77,0,0,1,3.33,1.34,2.32,2.32,0,0,0,3.46.27,6.35,6.35,0,0,1,3.76-1.4A4.29,4.29,0,0,1,472,58.68a2.42,2.42,0,0,0,3.43.24A5.52,5.52,0,0,1,478,57.56c.22,0,.43,0,.68-.06v2a3.44,3.44,0,0,0-2.24,1.05,4.38,4.38,0,0,1-5.61,0,3.56,3.56,0,0,0-2.1-1,2.93,2.93,0,0,0-2.47.93,4.55,4.55,0,0,1-5.86,0,3,3,0,0,0-4.44,0,4.6,4.6,0,0,1-5.86,0,3.07,3.07,0,0,0-4.49,0,4.37,4.37,0,0,1-5.8,0A3.71,3.71,0,0,0,437.49,59.48Z"/><path class="cls-6" d="M447.8,30.18V25h20.79v5.2l-2-.6c-2.63-.83-5.26-1.66-7.89-2.47a1.61,1.61,0,0,0-.87,0c-3.19,1-6.37,1.95-9.55,2.93Z"/><path class="cls-6" d="M453.06,22.68v-3h10.25v3Z"/><path class="cls-6" d="M18.68,61.92V30.38l13.06,11,.8-.89c-.81-.69-1.6-1.37-2.4-2a.85.85,0,0,1-.33-.73c0-2.28,0-4.56,0-6.85v-.52l13.12,11,.76-.88c-.84-.71-1.66-1.39-2.47-2.09a.59.59,0,0,1-.23-.38c0-2.52,0-5,0-7.68l13.09,11,.78-.89-1.63-1.38h8.9V61.92Zm20.07-8.38V48.28H33.47v5.26Zm11.17-5.27H44.63v5.27h5.29Zm-22.33.11H22.33v5.27h5.26Z"/><path class="cls-6" d="M60,21.13c.3,5.6.59,11.18.89,16.79H54.38c.29-5.6.58-11.18.88-16.79Z"/><path class="cls-6" d="M164.76,50.89h-2a2.18,2.18,0,0,1-2.43-2.41V25.38a2.19,2.19,0,0,1,2.45-2.44h27.81A2.17,2.17,0,0,1,193,25.35c0,.9,0,1.79,0,2.68,0,.34.11.43.43.42,1,0,2.08,0,3.12,0a5.58,5.58,0,0,1,5.48,4c.68,2,1.34,4,2,6a.6.6,0,0,0,.53.47c1.38.27,2.76.56,4.13.86A2.17,2.17,0,0,1,210.47,42V48.6a2.16,2.16,0,0,1-2.25,2.29H206a6.25,6.25,0,0,1-2.29,4.79,5.93,5.93,0,0,1-3.85,1.38,6,6,0,0,1-4.4-1.79,6.12,6.12,0,0,1-1.85-4.35H177.15a6.13,6.13,0,0,1-2.53,4.95,6,6,0,0,1-4,1.18A6.22,6.22,0,0,1,164.76,50.89Zm35.77-12.65c-.58-1.74-1.11-3.43-1.72-5.09a2.11,2.11,0,0,0-2.08-1.42c-1,0-2,0-3,0H193v6.52ZM171,53.83a2.87,2.87,0,0,0,2.89-2.91A2.91,2.91,0,1,0,171,53.83Zm28.83,0a2.93,2.93,0,0,0,2.91-2.91,2.91,2.91,0,0,0-5.81,0A2.9,2.9,0,0,0,199.8,53.83Z"/><text class="cls-7" transform="translate(6 109.8)">PRODUCCIÓN</text><text class="cls-7" transform="translate(140.56 109.8)">COORDINACIÓN<tspan x="6.23" y="13.2">DE DES</tspan><tspan class="cls-8" x="47.18" y="13.2">P</tspan><tspan x="53.7" y="13.2">ACHO</tspan></text><text class="cls-7" transform="translate(265.69 109.01)">EN PUE<tspan class="cls-9" x="40.96" y="0">RT</tspan><tspan x="55.22" y="0">O ORIGEN</tspan></text><text class="cls-7" transform="translate(424.25 109.01)">ZARPE N<tspan class="cls-8" x="47.67" y="0">A</tspan><tspan x="54.2" y="0">VE</tspan></text><text class="cls-7" transform="translate(544.24 109.8)">DOCUMEN<tspan class="cls-8" x="56.83" y="0">T</tspan><tspan x="62.73" y="0">ACIÓN</tspan></text><path class="cls-6" d="M348.56,29.49l-19.5-8.41a.84.84,0,0,0-.66,0L289.25,37.71a.87.87,0,0,0-.52.78V60.86a.86.86,0,0,0,.52.78L308.85,70l.09,0a1,1,0,0,0,.24,0h0a1.23,1.23,0,0,0,.25,0l.07,0,39-16.61a.83.83,0,0,0,.51-.77V30.27A.84.84,0,0,0,348.56,29.49ZM296.34,54.73a.85.85,0,1,1-1.69,0V50.66a.85.85,0,0,1,1.69,0ZM302,56.22a.85.85,0,0,1-1.7,0V52.15a.85.85,0,0,1,1.7,0Zm13.08,7.5a.85.85,0,0,1-1.69,0V48.54a.85.85,0,1,1,1.69,0Zm5-2.08a.85.85,0,0,1-1.69,0V46.46a.85.85,0,0,1,1.69,0ZM325,59.56a.85.85,0,1,1-1.69,0V44.39a.85.85,0,1,1,1.69,0Zm4.95-2.07a.85.85,0,0,1-1.69,0V42.31a.85.85,0,1,1,1.69,0Zm4.95-2.08a.85.85,0,0,1-1.69,0V40.23a.85.85,0,0,1,1.69,0Zm4.95-2.08a.85.85,0,1,1-1.69,0V38.16a.85.85,0,1,1,1.69,0Zm5-2.07a.85.85,0,0,1-1.69,0V36.08a.85.85,0,0,1,1.69,0Z"/><path class="cls-1" d="M349.12,29.18l-19.86-8.56a.85.85,0,0,0-.68,0l-39.9,17a.86.86,0,0,0-.52.8h0V61.15a.86.86,0,0,0,.52.8l20,8.53.1,0h0a1,1,0,0,0,.25,0h0a.74.74,0,0,0,.25,0h0l.08,0,39.78-16.92a.86.86,0,0,0,.52-.8V30A.86.86,0,0,0,349.12,29.18ZM289.88,39.66l7.18,3.07V63.65l-7.18-3.07Zm18.25,28.72-9.34-4V43.47l9.34,4ZM309,46l-17.78-7.6,37.69-16L346.59,30Zm38.92,6.23L309.86,68.38V47.46l38.06-16.18V52.19Z"/></g></g></svg>