<svg xmlns="http://www.w3.org/2000/svg" viewBox="0 0 478.29 167.33"><defs><style>.cls-1{fill:#fff;}.cls-2{fill:#f7931e;}</style></defs><title>iniciocolRecurso 10</title><g id="Capa_2" data-name="Capa 2"><g id="Capa_1-2" data-name="Capa 1"><rect class="cls-1" x="37.4" y="5.44" width="440.89" height="156" rx="13.09" ry="13.09"/><rect class="cls-2" width="190.38" height="167.33" rx="31.81" ry="31.81"/><path class="cls-1" d="M50.24,111.85H33.69c-2.33,0-3.1-.77-3.1-3.11,0-5.6,0-11.21,0-16.81A19.73,19.73,0,0,1,70,90.7c.16,6.18,0,12.38,0,18.57,0,1.67-1,2.57-2.75,2.57Z"/><path class="cls-1" d="M141.37,111.85H124.69c-2.24,0-3-.81-3-3,0-5.68,0-11.37,0-17.06,0-10.51,8.19-19.29,18.41-19.81a19.79,19.79,0,0,1,21,17.67,15,15,0,0,1,.07,1.77q0,8.84,0,17.69c0,1.9-.88,2.77-2.8,2.77Z"/><path class="cls-1" d="M95.85,129H79.18c-2.26,0-3.06-.8-3.06-3,0-5.69,0-11.37,0-17.06a19.71,19.71,0,0,1,39-4.15,20,20,0,0,1,.42,4c0,5.77,0,11.54,0,17.31,0,2-.86,2.91-2.92,2.91Z"/><path class="cls-1" d="M35.93,57A14.4,14.4,0,1,1,50.32,71.41,14.42,14.42,0,0,1,35.93,57Z"/><path class="cls-1" d="M95.84,88.6a14.4,14.4,0,1,1,14.4-14.4A14.43,14.43,0,0,1,95.84,88.6Z"/><path class="cls-1" d="M155.76,57a14.4,14.4,0,1,1-14.39-14.39A14.42,14.42,0,0,1,155.76,57Z"/><text></text></g></g></svg>