<svg xmlns="http://www.w3.org/2000/svg" viewBox="0 0 190.38 167.33"><defs><style>.cls-1{fill:#662d91;}.cls-2{fill:#fff;}</style></defs><title>inicioRecurso 1</title><g id="Capa_2" data-name="Capa 2"><g id="Capa_1-2" data-name="Capa 1"><rect class="cls-1" width="190.38" height="167.33" rx="31.81" ry="31.81"/><path class="cls-2" d="M80.23,67.45c-.25-.87-.45-1.76-.78-2.6-.55-1.35-.43-1.83.84-2.59a27.77,27.77,0,0,1,7.79-3.15,1.58,1.58,0,0,1,2.17,1.24,6.19,6.19,0,0,0,.32.85c.78,1.58,1.87,2.8,3.78,2.79s3.11-1.19,3.87-2.83c1.15-2.45,1.18-2.58,3.78-1.69a59.33,59.33,0,0,1,6.5,2.82c1.26.62,1.3,1.32.81,2.6a8.8,8.8,0,0,0-.68,3.13,3.58,3.58,0,0,0,4.84,3.49,11.15,11.15,0,0,0,1.92-.9,1.4,1.4,0,0,1,2.1.49,26.77,26.77,0,0,1,3.5,8.3c.3,1.23-.09,1.83-1.31,2.18-1.79.52-3.28,1.42-3.74,3.35-.49,2.11.86,4.06,3.24,4.83,1.9.63,2.21,1,1.51,2.86-1,2.49-2.06,4.93-3.22,7.33-.64,1.31-1.41,1.42-2.66.67a4.65,4.65,0,0,0-3.49-.73c-2.29.5-3.49,2.72-2.84,5.26a10.38,10.38,0,0,0,.62,1.6,1.44,1.44,0,0,1-.57,2,25.08,25.08,0,0,1-8.52,3.47,1.48,1.48,0,0,1-1.78-1,11.71,11.71,0,0,0-.87-1.82,3.68,3.68,0,0,0-6.19-.25,9.38,9.38,0,0,0-1.1,2.05c-.29.65-.66,1.1-1.46.91a28.46,28.46,0,0,1-8.47-3.36c-1.21-.76-1.33-1.22-.79-2.5a7.75,7.75,0,0,0,.57-2,3.88,3.88,0,0,0-5.84-4c-.24.12-.47.28-.7.41a1.33,1.33,0,0,1-2.09-.43,27.42,27.42,0,0,1-3.61-8.69c-.21-.93.31-1.45,1.14-1.76a9.05,9.05,0,0,0,1.85-.82,3.63,3.63,0,0,0,.39-6,7.7,7.7,0,0,0-2.18-1.24c-1.18-.49-1.52-.9-1.2-2.16a26.81,26.81,0,0,1,1.23-3.87A41.7,41.7,0,0,1,71,71.4c.64-1.16,1.34-1.22,2.53-.65a7.23,7.23,0,0,0,3,.85C78.68,71.6,80.1,69.84,80.23,67.45ZM94.38,77.74a8.06,8.06,0,1,0,8,8.1A8,8,0,0,0,94.38,77.74Z"/><path class="cls-2" d="M89.81,29.52c-.71-.47-1.22-.78-1.7-1.14A2.4,2.4,0,0,1,87.49,25a2.3,2.3,0,0,1,3.2-.82c3,1.87,5.87,3.78,8.74,5.78,1.33.92,1.18,2.83-.22,3.93-2.17,1.7-4.37,3.35-6.55,5l-1.53,1.18a2.44,2.44,0,0,1-3.46-.35A2.53,2.53,0,0,1,88,36.29a14.74,14.74,0,0,0,1.93-1.82c-1.6.2-3.23.32-4.82.62-15.57,3-27.56,11.2-35.69,24.8a49.82,49.82,0,0,0-6.64,32.77A51.64,51.64,0,0,0,143,101.75a49.23,49.23,0,0,0,2.48-14.29c0-.47,0-.95,0-1.42A2.53,2.53,0,0,1,148,83.33a2.67,2.67,0,0,1,2.56,2.76,51.88,51.88,0,0,1-.23,5.29,56.83,56.83,0,0,1-50.57,50.94A56.59,56.59,0,0,1,80.51,31.06c2.62-.65,5.34-.92,8-1.36C88.87,29.64,89.23,29.6,89.81,29.52Z"/><path class="cls-2" d="M121.61,41.54a3,3,0,0,1,3-3,3.06,3.06,0,1,1,0,6.11A3,3,0,0,1,121.61,41.54Z"/><path class="cls-2" d="M143,72.71a3,3,0,0,1,3-3,3.05,3.05,0,1,1,0,6.1A3,3,0,0,1,143,72.71Z"/><path class="cls-2" d="M131.75,50.69a3,3,0,0,1,3-3,3.05,3.05,0,1,1,0,6.1A3,3,0,0,1,131.75,50.69Z"/><path class="cls-2" d="M115.57,35.18a3,3,0,0,1-3,3.07,3.09,3.09,0,0,1-3.09-3.1,3,3,0,0,1,3.08-3A3,3,0,0,1,115.57,35.18Z"/><path class="cls-2" d="M142.08,64.38a3,3,0,0,1-3-3,3.06,3.06,0,0,1,3-3.06,3.11,3.11,0,0,1,3.08,3.13A3.06,3.06,0,0,1,142.08,64.38Z"/></g></g></svg>