<svg xmlns="http://www.w3.org/2000/svg" viewBox="0 0 481.93 167.33"><defs><style>.cls-1{fill:#fff;}.cls-2{fill:#29abe2;}</style></defs><title>iniciocliRecurso 11</title><g id="Capa_2" data-name="Capa 2"><g id="Capa_1-2" data-name="Capa 1"><rect class="cls-1" x="41.04" y="13.13" width="440.89" height="147" rx="12.7" ry="12.7"/><rect class="cls-2" width="190.38" height="167.33" rx="31.81" ry="31.81"/><path class="cls-1" d="M151.32,138.58H121.76V98.79l-.23-.07-1,1.21a32.71,32.71,0,0,1-15.78,10,9.51,9.51,0,1,1-3.81-18.6,29.84,29.84,0,0,0,15.19-6.62,61.85,61.85,0,0,0,5.75-5.81,8.69,8.69,0,0,0,1.34-2.16,14.77,14.77,0,0,1,27.91,4.1,18.2,18.2,0,0,1,.19,2.76q0,27,0,53.93Z"/><path class="cls-1" d="M87.5,90.92a13.57,13.57,0,0,0-2.6,18.41A33.37,33.37,0,0,1,69.76,98.47v40.1H40.2c0-.35,0-.72,0-1.08q.09-27.21.19-54.43a14.78,14.78,0,0,1,28.4-5.63,11.93,11.93,0,0,0,1.89,2.77,32.48,32.48,0,0,0,16.2,10.43l.48.16S87.41,90.84,87.5,90.92Z"/><path class="cls-1" d="M55.11,57.42A14.77,14.77,0,1,1,69.92,42.75,14.78,14.78,0,0,1,55.11,57.42Z"/><path class="cls-1" d="M121.74,42.6a14.77,14.77,0,1,1,14.65,14.82A14.74,14.74,0,0,1,121.74,42.6Z"/></g></g></svg>